<?xml version="1.0" encoding="UTF-8" standalone="no"?>
<!-- Created with Inkscape (http://www.inkscape.org/) -->

<svg
   xmlns:dc="http://purl.org/dc/elements/1.1/"
   xmlns:cc="http://creativecommons.org/ns#"
   xmlns:rdf="http://www.w3.org/1999/02/22-rdf-syntax-ns#"
   xmlns:svg="http://www.w3.org/2000/svg"
   xmlns="http://www.w3.org/2000/svg"
   xmlns:xlink="http://www.w3.org/1999/xlink"
   xmlns:sodipodi="http://sodipodi.sourceforge.net/DTD/sodipodi-0.dtd"
   xmlns:inkscape="http://www.inkscape.org/namespaces/inkscape"
   width="401"
   height="401"
   id="svg2"
   version="1.1"
   inkscape:version="0.48.4 r9939"
   sodipodi:docname="convex_hull17.svg">
  <sodipodi:namedview
     id="base"
     pagecolor="#ffffff"
     bordercolor="#666666"
     borderopacity="1.0"
     inkscape:pageopacity="0.0"
     inkscape:pageshadow="2"
     inkscape:zoom="1.4"
     inkscape:cx="47.618949"
     inkscape:cy="171.65865"
     inkscape:document-units="px"
     inkscape:current-layer="layer1"
     showgrid="false"
     inkscape:snap-object-midpoints="true"
     inkscape:object-nodes="true"
     inkscape:object-paths="true"
     inkscape:snap-intersection-paths="true"
     inkscape:window-width="1598"
     inkscape:window-height="865"
     inkscape:window-x="0"
     inkscape:window-y="34"
     inkscape:window-maximized="0"
     inkscape:snap-global="true"
     fit-margin-top="0"
     fit-margin-left="0"
     fit-margin-right="0"
     fit-margin-bottom="0">
    <inkscape:grid
       originy="-79.500003px"
       originx="-139.5px"
       snapvisiblegridlinesonly="true"
       enabled="true"
       visible="true"
       empspacing="5"
       id="grid2985"
       type="xygrid" />
  </sodipodi:namedview>
  <defs
     id="defs4">
    <marker
       inkscape:stockid="Arrow1Mend"
       orient="auto"
       refY="0"
       refX="0"
       id="Arrow1Mend"
       style="overflow:visible">
      <path
         inkscape:connector-curvature="0"
         id="path3870"
         d="M 0,0 5,-5 -12.5,0 5,5 0,0 z"
         style="fill-rule:evenodd;stroke:#000000;stroke-width:1pt"
         transform="matrix(-0.4,0,0,-0.4,-4,0)" />
    </marker>
    <marker
       style="overflow:visible"
       id="Arrow1Send"
       refX="0"
       refY="0"
       orient="auto"
       inkscape:stockid="Arrow1Send">
      <path
         inkscape:connector-curvature="0"
         transform="matrix(-0.2,0,0,-0.2,-1.2,0)"
         style="fill-rule:evenodd;stroke:#000000;stroke-width:1pt"
         d="M 0,0 5,-5 -12.5,0 5,5 0,0 z"
         id="path3876" />
    </marker>
    <marker
       style="overflow:visible"
       id="Arrow1SendB"
       refX="0"
       refY="0"
       orient="auto"
       inkscape:stockid="Arrow1SendB">
      <path
         inkscape:connector-curvature="0"
         transform="matrix(-0.2,0,0,-0.2,-1.2,0)"
         style="fill:#fe0000;fill-rule:evenodd;stroke:#fe0000;stroke-width:1pt"
         d="M 0,0 5,-5 -12.5,0 5,5 0,0 z"
         id="path4306" />
    </marker>
    <marker
       inkscape:stockid="Arrow1Mendg"
       orient="auto"
       refY="0"
       refX="0"
       id="Arrow1Mendg"
       style="overflow:visible">
      <path
         inkscape:connector-curvature="0"
         id="path4557"
         d="M 0,0 5,-5 -12.5,0 5,5 0,0 z"
         style="fill:#fe0000;fill-rule:evenodd;stroke:#fe0000;stroke-width:1pt"
         transform="matrix(-0.4,0,0,-0.4,-4,0)" />
    </marker>
    <linearGradient
       gradientUnits="userSpaceOnUse"
       y2="759.10065"
       x2="160"
       y1="892.36218"
       x1="160"
       id="linearGradient4057"
       xlink:href="#linearGradient4051"
       inkscape:collect="always" />
    <linearGradient
       id="linearGradient4051"
       inkscape:collect="always">
      <stop
         id="stop4053"
         offset="0"
         style="stop-color:#ff0000;stop-opacity:1;" />
      <stop
         id="stop4055"
         offset="1"
         style="stop-color:#ff0000;stop-opacity:0;" />
    </linearGradient>
    <linearGradient
       inkscape:collect="always"
       xlink:href="#linearGradient4051"
       id="linearGradient4074"
       gradientUnits="userSpaceOnUse"
       x1="160"
       y1="892.36218"
       x2="160"
       y2="652.36218"
       gradientTransform="translate(-2e-6,0)" />
    <marker
       inkscape:stockid="Arrow1MendgX"
       orient="auto"
       refY="0"
       refX="0"
       id="Arrow1MendgX"
       style="overflow:visible">
      <path
         inkscape:connector-curvature="0"
         id="path4162"
         d="M 0,0 5,-5 -12.5,0 5,5 0,0 z"
         style="stroke-width:1pt;stroke:#ff6600;fill-rule:evenodd;fill:#ff6600"
         transform="matrix(-0.4,0,0,-0.4,-4,0)" />
    </marker>
    <linearGradient
       inkscape:collect="always"
       xlink:href="#linearGradient4051"
       id="linearGradient4251"
       gradientUnits="userSpaceOnUse"
       gradientTransform="translate(-2e-6,0)"
       x1="160"
       y1="892.36218"
       x2="160"
       y2="592.36218" />
  </defs>
  <metadata
     id="metadata7">
    <rdf:RDF>
      <cc:Work
         rdf:about="">
        <dc:format>image/svg+xml</dc:format>
        <dc:type
           rdf:resource="http://purl.org/dc/dcmitype/StillImage" />
        <dc:title></dc:title>
      </cc:Work>
    </rdf:RDF>
  </metadata>
  <g
     transform="translate(-139.5,-571.86218)"
     id="layer1"
     inkscape:groupmode="layer"
     inkscape:label="Layer 1">
    <g
       transform="translate(200,0)"
       id="g3812">
      <path
         style="fill:none;stroke:#009bd5;stroke-width:1px;stroke-linecap:butt;stroke-linejoin:miter;stroke-opacity:1"
         d="m 80,972.36218 0,-400"
         id="path2987"
         inkscape:connector-curvature="0" />
      <path
         inkscape:connector-curvature="0"
         id="path3757"
         d="m 140,972.36218 0,-400"
         style="fill:none;stroke:#009bd5;stroke-width:1px;stroke-linecap:butt;stroke-linejoin:miter;stroke-opacity:1" />
      <path
         style="fill:none;stroke:#009bd5;stroke-width:1px;stroke-linecap:butt;stroke-linejoin:miter;stroke-opacity:1"
         d="m 340,772.36218 -400,0"
         id="path3759"
         inkscape:connector-curvature="0" />
      <path
         inkscape:connector-curvature="0"
         id="path3761"
         d="m 340,712.36218 -400,0"
         style="fill:none;stroke:#009bd5;stroke-width:1px;stroke-linecap:butt;stroke-linejoin:miter;stroke-opacity:1" />
      <path
         inkscape:connector-curvature="0"
         id="path3763"
         d="m 340,652.36218 -400,0"
         style="fill:none;stroke:#009bd5;stroke-width:1px;stroke-linecap:butt;stroke-linejoin:miter;stroke-opacity:1" />
      <path
         style="fill:none;stroke:#009bd5;stroke-width:1px;stroke-linecap:butt;stroke-linejoin:miter;stroke-opacity:1"
         d="m 340,592.36218 -400,0"
         id="path3765"
         inkscape:connector-curvature="0" />
      <path
         style="fill:none;stroke:#009bd5;stroke-width:1px;stroke-linecap:butt;stroke-linejoin:miter;stroke-opacity:1"
         d="m 340,892.36218 -400,0"
         id="path3767"
         inkscape:connector-curvature="0" />
      <path
         inkscape:connector-curvature="0"
         id="path3769"
         d="m 340,832.36218 -400,0"
         style="fill:none;stroke:#009bd5;stroke-width:1px;stroke-linecap:butt;stroke-linejoin:miter;stroke-opacity:1" />
      <path
         inkscape:connector-curvature="0"
         id="path3771"
         d="m 340,952.36218 -400,0"
         style="fill:none;stroke:#009bd5;stroke-width:1px;stroke-linecap:butt;stroke-linejoin:miter;stroke-opacity:1" />
      <path
         inkscape:connector-curvature="0"
         id="path3773"
         d="m 200,972.36218 0,-400"
         style="fill:none;stroke:#009bd5;stroke-width:1px;stroke-linecap:butt;stroke-linejoin:miter;stroke-opacity:1" />
      <path
         style="fill:none;stroke:#009bd5;stroke-width:1px;stroke-linecap:butt;stroke-linejoin:miter;stroke-opacity:1"
         d="m 260,972.36218 0,-400"
         id="path3775"
         inkscape:connector-curvature="0" />
      <path
         style="fill:none;stroke:#009bd5;stroke-width:1px;stroke-linecap:butt;stroke-linejoin:miter;stroke-opacity:1"
         d="m -40,972.36218 0,-400"
         id="path3777"
         inkscape:connector-curvature="0" />
      <path
         inkscape:connector-curvature="0"
         id="path3779"
         d="m 20,972.36218 0,-400"
         style="fill:none;stroke:#009bd5;stroke-width:1px;stroke-linecap:butt;stroke-linejoin:miter;stroke-opacity:1" />
      <path
         style="fill:none;stroke:#009bd5;stroke-width:1px;stroke-linecap:butt;stroke-linejoin:miter;stroke-opacity:1"
         d="m 320,972.36218 0,-400"
         id="path3781"
         inkscape:connector-curvature="0" />
    </g>
    <path
       transform="translate(720.71429,40.714292)"
       d="m -314.96411,791.64789 c 0,3.17574 -2.57445,5.75018 -5.75018,5.75018 -3.17574,0 -5.75018,-2.57444 -5.75018,-5.75018 0,-3.17574 2.57444,-5.75018 5.75018,-5.75018 3.17573,0 5.75018,2.57444 5.75018,5.75018 z"
       sodipodi:ry="5.7501802"
       sodipodi:rx="5.7501802"
       sodipodi:cy="791.64789"
       sodipodi:cx="-320.71429"
       id="path4611"
       style="fill:#008000;fill-opacity:1;stroke:none"
       sodipodi:type="arc" />
    <path
       transform="translate(780.71429,-79.28571)"
       d="m -314.96411,791.64789 c 0,3.17574 -2.57445,5.75018 -5.75018,5.75018 -3.17574,0 -5.75018,-2.57444 -5.75018,-5.75018 0,-3.17574 2.57444,-5.75018 5.75018,-5.75018 3.17573,0 5.75018,2.57444 5.75018,5.75018 z"
       sodipodi:ry="5.7501802"
       sodipodi:rx="5.7501802"
       sodipodi:cy="791.64789"
       sodipodi:cx="-320.71429"
       id="path4613"
       style="fill:#008000;fill-opacity:1;stroke:none"
       sodipodi:type="arc" />
    <path
       sodipodi:type="arc"
       style="fill:#008000;fill-opacity:1;stroke:none"
       id="path3039"
       sodipodi:cx="-320.71429"
       sodipodi:cy="791.64789"
       sodipodi:rx="5.7501802"
       sodipodi:ry="5.7501802"
       d="m -314.96411,791.64789 c 0,3.17574 -2.57445,5.75018 -5.75018,5.75018 -3.17574,0 -5.75018,-2.57444 -5.75018,-5.75018 0,-3.17574 2.57444,-5.75018 5.75018,-5.75018 3.17573,0 5.75018,2.57444 5.75018,5.75018 z"
       transform="translate(720.71429,-79.28571)" />
    <path
       transform="translate(540.71429,40.71429)"
       sodipodi:type="arc"
       style="fill:#008000;fill-opacity:1;stroke:none"
       id="path3043"
       sodipodi:cx="-320.71429"
       sodipodi:cy="791.64789"
       sodipodi:rx="5.7501802"
       sodipodi:ry="5.7501802"
       d="m -314.96411,791.64789 c 0,3.17574 -2.57445,5.75018 -5.75018,5.75018 -3.17574,0 -5.75018,-2.57444 -5.75018,-5.75018 0,-3.17574 2.57444,-5.75018 5.75018,-5.75018 3.17573,0 5.75018,2.57444 5.75018,5.75018 z" />
    <path
       transform="translate(600.71429,160.71429)"
       d="m -314.96411,791.64789 c 0,3.17574 -2.57445,5.75018 -5.75018,5.75018 -3.17574,0 -5.75018,-2.57444 -5.75018,-5.75018 0,-3.17574 2.57444,-5.75018 5.75018,-5.75018 3.17573,0 5.75018,2.57444 5.75018,5.75018 z"
       sodipodi:ry="5.7501802"
       sodipodi:rx="5.7501802"
       sodipodi:cy="791.64789"
       sodipodi:cx="-320.71429"
       id="path3045"
       style="fill:#008000;fill-opacity:1;stroke:none"
       sodipodi:type="arc" />
    <path
       sodipodi:type="arc"
       style="fill:#008000;fill-opacity:1;stroke:none"
       id="path3047"
       sodipodi:cx="-320.71429"
       sodipodi:cy="791.64789"
       sodipodi:rx="5.7501802"
       sodipodi:ry="5.7501802"
       d="m -314.96411,791.64789 c 0,3.17574 -2.57445,5.75018 -5.75018,5.75018 -3.17574,0 -5.75018,-2.57444 -5.75018,-5.75018 0,-3.17574 2.57444,-5.75018 5.75018,-5.75018 3.17573,0 5.75018,2.57444 5.75018,5.75018 z"
       transform="translate(660.71429,40.71429)" />
    <path
       transform="translate(600.71429,-79.28571)"
       d="m -314.96411,791.64789 c 0,3.17574 -2.57445,5.75018 -5.75018,5.75018 -3.17574,0 -5.75018,-2.57444 -5.75018,-5.75018 0,-3.17574 2.57444,-5.75018 5.75018,-5.75018 3.17573,0 5.75018,2.57444 5.75018,5.75018 z"
       sodipodi:ry="5.7501802"
       sodipodi:rx="5.7501802"
       sodipodi:cy="791.64789"
       sodipodi:cx="-320.71429"
       id="path3049"
       style="fill:#008000;fill-opacity:1;stroke:none"
       sodipodi:type="arc" />
    <path
       sodipodi:type="arc"
       style="fill:#008000;fill-opacity:1;stroke:none"
       id="path3051"
       sodipodi:cx="-320.71429"
       sodipodi:cy="791.64789"
       sodipodi:rx="5.7501802"
       sodipodi:ry="5.7501802"
       d="m -314.96411,791.64789 c 0,3.17574 -2.57445,5.75018 -5.75018,5.75018 -3.17574,0 -5.75018,-2.57444 -5.75018,-5.75018 0,-3.17574 2.57444,-5.75018 5.75018,-5.75018 3.17573,0 5.75018,2.57444 5.75018,5.75018 z"
       transform="translate(660.71429,-19.28571)" />
    <path
       transform="translate(840.71429,-19.28571)"
       d="m -314.96411,791.64789 c 0,3.17574 -2.57445,5.75018 -5.75018,5.75018 -3.17574,0 -5.75018,-2.57444 -5.75018,-5.75018 0,-3.17574 2.57444,-5.75018 5.75018,-5.75018 3.17573,0 5.75018,2.57444 5.75018,5.75018 z"
       sodipodi:ry="5.7501802"
       sodipodi:rx="5.7501802"
       sodipodi:cy="791.64789"
       sodipodi:cx="-320.71429"
       id="path3053"
       style="fill:#ff6600;fill-opacity:1;stroke:none"
       sodipodi:type="arc" />
    <path
       sodipodi:type="arc"
       style="fill:#008000;fill-opacity:1;stroke:none"
       id="path3055"
       sodipodi:cx="-320.71429"
       sodipodi:cy="791.64789"
       sodipodi:rx="5.7501802"
       sodipodi:ry="5.7501802"
       d="m -314.96411,791.64789 c 0,3.17574 -2.57445,5.75018 -5.75018,5.75018 -3.17574,0 -5.75018,-2.57444 -5.75018,-5.75018 0,-3.17574 2.57444,-5.75018 5.75018,-5.75018 3.17573,0 5.75018,2.57444 5.75018,5.75018 z"
       transform="translate(720.71429,-199.28571)" />
    <path
       sodipodi:type="arc"
       style="fill:#ff00ff;fill-opacity:1;stroke:none"
       id="path3082"
       sodipodi:cx="-320.71429"
       sodipodi:cy="791.64789"
       sodipodi:rx="5.7501802"
       sodipodi:ry="5.7501802"
       d="m -314.96411,791.64789 c 0,3.17574 -2.57445,5.75018 -5.75018,5.75018 -3.17574,0 -5.75018,-2.57444 -5.75018,-5.75018 0,-3.17574 2.57444,-5.75018 5.75018,-5.75018 3.17573,0 5.75018,2.57444 5.75018,5.75018 z"
       transform="translate(480.71429,100.71429)" />
    <path
       sodipodi:type="arc"
       style="fill:#008000;fill-opacity:1;stroke:none"
       id="path3877"
       sodipodi:cx="-320.71429"
       sodipodi:cy="791.64789"
       sodipodi:rx="5.7501802"
       sodipodi:ry="5.7501802"
       d="m -314.96411,791.64789 c 0,3.17574 -2.57445,5.75018 -5.75018,5.75018 -3.17574,0 -5.75018,-2.57444 -5.75018,-5.75018 0,-3.17574 2.57444,-5.75018 5.75018,-5.75018 3.17573,0 5.75018,2.57444 5.75018,5.75018 z"
       transform="translate(780.71429,40.714292)" />
    <path
       sodipodi:nodetypes="cc"
       transform="translate(139.5,571.86218)"
       inkscape:connector-curvature="0"
       id="path4044"
       d="M 28.284271,337.36038 C 129.29953,458.57869 305.06607,380.79694 376.7869,218.16238"
       style="fill:none;stroke:#666666;stroke-width:3.60000000000000009;stroke-linecap:butt;stroke-linejoin:miter;stroke-miterlimit:4;stroke-opacity:1;stroke-dasharray:none" />
    <path
       style="fill:none;stroke:#cccccc;stroke-width:3.60000000000000009;stroke-linecap:butt;stroke-linejoin:miter;stroke-miterlimit:4;stroke-opacity:1;stroke-dasharray:none"
       d="M 23.233508,302.00504 C 103.03556,-75.792001 320.21836,-70.741245 376.7869,177.75628"
       id="path4046"
       inkscape:connector-curvature="0"
       transform="translate(139.5,571.86218)"
       sodipodi:nodetypes="cc" />
    <path
       sodipodi:nodetypes="cccccc"
       inkscape:connector-curvature="0"
       id="rect3256"
       d="m 160,592.36218 240,0 0,120 -120,240 -120,-60 z"
       style="opacity:0.4;fill:url(#linearGradient4251);fill-opacity:1;stroke:none" />
    <path
       sodipodi:nodetypes="cc"
       style="fill:none;stroke:#ff0000;stroke-width:2;stroke-linecap:butt;stroke-linejoin:miter;stroke-miterlimit:4;stroke-opacity:1;stroke-dasharray:none;marker-end:url(#Arrow1Mendg)"
       d="m 160,892.36218 120,60"
       id="path4295"
       inkscape:connector-curvature="0" />
    <path
       sodipodi:type="arc"
       style="fill:#008000;fill-opacity:1;stroke:none"
       id="path4123"
       sodipodi:cx="-320.71429"
       sodipodi:cy="791.64789"
       sodipodi:rx="5.7501802"
       sodipodi:ry="5.7501802"
       d="m -314.96411,791.64789 c 0,3.17574 -2.57445,5.75018 -5.75018,5.75018 -3.17574,0 -5.75018,-2.57444 -5.75018,-5.75018 0,-3.17574 2.57444,-5.75018 5.75018,-5.75018 3.17573,0 5.75018,2.57444 5.75018,5.75018 z"
       transform="translate(600.71429,-139.28571)" />
    <path
       inkscape:connector-curvature="0"
       id="path5120"
       d="m 280,952.36218 60,-120"
       style="fill:none;stroke:#ff0000;stroke-width:2;stroke-linecap:butt;stroke-linejoin:miter;stroke-miterlimit:4;stroke-opacity:1;stroke-dasharray:none;marker-end:url(#Arrow1Mendg)"
       sodipodi:nodetypes="cc" />
    <path
       inkscape:connector-curvature="0"
       id="path5317"
       d="m 340,832.36218 60,-120"
       style="fill:none;stroke:#ff0000;stroke-width:2;stroke-linecap:butt;stroke-linejoin:miter;stroke-miterlimit:4;stroke-opacity:1;stroke-dasharray:none;marker-end:url(#Arrow1Mendg)"
       sodipodi:nodetypes="cc" />
    <path
       sodipodi:nodetypes="cc"
       style="fill:none;stroke:#ff0000;stroke-width:2;stroke-linecap:butt;stroke-linejoin:miter;stroke-miterlimit:4;stroke-opacity:1;stroke-dasharray:none;marker-end:url(#Arrow1Mendg)"
       d="m 400,712.36218 0,-120"
       id="path7890"
       inkscape:connector-curvature="0" />
    <path
       inkscape:connector-curvature="0"
       id="path7971"
       d="m 400,592.36218 0,240"
       style="fill:none;stroke:#ff0000;stroke-width:2;stroke-linecap:butt;stroke-linejoin:miter;stroke-miterlimit:4;stroke-opacity:1;stroke-dasharray:4,2;marker-end:url(#Arrow1Mendg);stroke-dashoffset:0"
       sodipodi:nodetypes="cc" />
  </g>
</svg>
