<?xml version="1.0" encoding="UTF-8" standalone="no"?>
<!-- Created with Inkscape (http://www.inkscape.org/) -->

<svg
   xmlns:dc="http://purl.org/dc/elements/1.1/"
   xmlns:cc="http://creativecommons.org/ns#"
   xmlns:rdf="http://www.w3.org/1999/02/22-rdf-syntax-ns#"
   xmlns:svg="http://www.w3.org/2000/svg"
   xmlns="http://www.w3.org/2000/svg"
   xmlns:sodipodi="http://sodipodi.sourceforge.net/DTD/sodipodi-0.dtd"
   xmlns:inkscape="http://www.inkscape.org/namespaces/inkscape"
   width="401"
   height="401"
   id="svg2"
   version="1.1"
   inkscape:version="0.48.4 r9939"
   sodipodi:docname="convex_hull_points.svg">
  <sodipodi:namedview
     id="base"
     pagecolor="#ffffff"
     bordercolor="#666666"
     borderopacity="1.0"
     inkscape:pageopacity="0.0"
     inkscape:pageshadow="2"
     inkscape:zoom="0.98994949"
     inkscape:cx="45.532764"
     inkscape:cy="251.02088"
     inkscape:document-units="px"
     inkscape:current-layer="layer1"
     showgrid="false"
     inkscape:snap-object-midpoints="true"
     inkscape:object-nodes="true"
     inkscape:object-paths="true"
     inkscape:snap-intersection-paths="true"
     inkscape:window-width="1598"
     inkscape:window-height="865"
     inkscape:window-x="0"
     inkscape:window-y="34"
     inkscape:window-maximized="0"
     inkscape:snap-global="false"
     fit-margin-top="0"
     fit-margin-left="0"
     fit-margin-right="0"
     fit-margin-bottom="0">
    <inkscape:grid
       type="xygrid"
       id="grid2985"
       empspacing="5"
       visible="true"
       enabled="true"
       snapvisiblegridlinesonly="true"
       originx="-139.5px"
       originy="-79.500003px" />
  </sodipodi:namedview>
  <defs
     id="defs4">
    <marker
       style="overflow:visible"
       id="Arrow1Mend"
       refX="0"
       refY="0"
       orient="auto"
       inkscape:stockid="Arrow1Mend">
      <path
         transform="matrix(-0.4,0,0,-0.4,-4,0)"
         style="fill-rule:evenodd;stroke:#000000;stroke-width:1pt"
         d="M 0,0 5,-5 -12.5,0 5,5 0,0 z"
         id="path3870"
         inkscape:connector-curvature="0" />
    </marker>
    <marker
       inkscape:stockid="Arrow1Send"
       orient="auto"
       refY="0"
       refX="0"
       id="Arrow1Send"
       style="overflow:visible">
      <path
         id="path3876"
         d="M 0,0 5,-5 -12.5,0 5,5 0,0 z"
         style="fill-rule:evenodd;stroke:#000000;stroke-width:1pt"
         transform="matrix(-0.2,0,0,-0.2,-1.2,0)"
         inkscape:connector-curvature="0" />
    </marker>
    <marker
       inkscape:stockid="Arrow1SendB"
       orient="auto"
       refY="0"
       refX="0"
       id="Arrow1SendB"
       style="overflow:visible">
      <path
         id="path4306"
         d="M 0,0 5,-5 -12.5,0 5,5 0,0 z"
         style="fill:#fe0000;fill-rule:evenodd;stroke:#fe0000;stroke-width:1pt"
         transform="matrix(-0.2,0,0,-0.2,-1.2,0)"
         inkscape:connector-curvature="0" />
    </marker>
    <marker
       style="overflow:visible"
       id="Arrow1Mendg"
       refX="0"
       refY="0"
       orient="auto"
       inkscape:stockid="Arrow1Mendg">
      <path
         transform="matrix(-0.4,0,0,-0.4,-4,0)"
         style="fill:#fe0000;fill-rule:evenodd;stroke:#fe0000;stroke-width:1pt"
         d="M 0,0 5,-5 -12.5,0 5,5 0,0 z"
         id="path4557"
         inkscape:connector-curvature="0" />
    </marker>
  </defs>
  <metadata
     id="metadata7">
    <rdf:RDF>
      <cc:Work
         rdf:about="">
        <dc:format>image/svg+xml</dc:format>
        <dc:type
           rdf:resource="http://purl.org/dc/dcmitype/StillImage" />
        <dc:title />
      </cc:Work>
    </rdf:RDF>
  </metadata>
  <g
     inkscape:label="Layer 1"
     inkscape:groupmode="layer"
     id="layer1"
     transform="translate(-139.5,-571.86218)">
    <g
       id="g3812"
       transform="translate(200,0)">
      <path
         inkscape:connector-curvature="0"
         id="path2987"
         d="m 80,972.36218 0,-400"
         style="fill:none;stroke:#009bd5;stroke-width:1px;stroke-linecap:butt;stroke-linejoin:miter;stroke-opacity:1" />
      <path
         style="fill:none;stroke:#009bd5;stroke-width:1px;stroke-linecap:butt;stroke-linejoin:miter;stroke-opacity:1"
         d="m 140,972.36218 0,-400"
         id="path3757"
         inkscape:connector-curvature="0" />
      <path
         inkscape:connector-curvature="0"
         id="path3759"
         d="m 340,772.36218 -400,0"
         style="fill:none;stroke:#009bd5;stroke-width:1px;stroke-linecap:butt;stroke-linejoin:miter;stroke-opacity:1" />
      <path
         style="fill:none;stroke:#009bd5;stroke-width:1px;stroke-linecap:butt;stroke-linejoin:miter;stroke-opacity:1"
         d="m 340,712.36218 -400,0"
         id="path3761"
         inkscape:connector-curvature="0" />
      <path
         style="fill:none;stroke:#009bd5;stroke-width:1px;stroke-linecap:butt;stroke-linejoin:miter;stroke-opacity:1"
         d="m 340,652.36218 -400,0"
         id="path3763"
         inkscape:connector-curvature="0" />
      <path
         inkscape:connector-curvature="0"
         id="path3765"
         d="m 340,592.36218 -400,0"
         style="fill:none;stroke:#009bd5;stroke-width:1px;stroke-linecap:butt;stroke-linejoin:miter;stroke-opacity:1" />
      <path
         inkscape:connector-curvature="0"
         id="path3767"
         d="m 340,892.36218 -400,0"
         style="fill:none;stroke:#009bd5;stroke-width:1px;stroke-linecap:butt;stroke-linejoin:miter;stroke-opacity:1" />
      <path
         style="fill:none;stroke:#009bd5;stroke-width:1px;stroke-linecap:butt;stroke-linejoin:miter;stroke-opacity:1"
         d="m 340,832.36218 -400,0"
         id="path3769"
         inkscape:connector-curvature="0" />
      <path
         style="fill:none;stroke:#009bd5;stroke-width:1px;stroke-linecap:butt;stroke-linejoin:miter;stroke-opacity:1"
         d="m 340,952.36218 -400,0"
         id="path3771"
         inkscape:connector-curvature="0" />
      <path
         style="fill:none;stroke:#009bd5;stroke-width:1px;stroke-linecap:butt;stroke-linejoin:miter;stroke-opacity:1"
         d="m 200,972.36218 0,-400"
         id="path3773"
         inkscape:connector-curvature="0" />
      <path
         inkscape:connector-curvature="0"
         id="path3775"
         d="m 260,972.36218 0,-400"
         style="fill:none;stroke:#009bd5;stroke-width:1px;stroke-linecap:butt;stroke-linejoin:miter;stroke-opacity:1" />
      <path
         inkscape:connector-curvature="0"
         id="path3777"
         d="m -40,972.36218 0,-400"
         style="fill:none;stroke:#009bd5;stroke-width:1px;stroke-linecap:butt;stroke-linejoin:miter;stroke-opacity:1" />
      <path
         style="fill:none;stroke:#009bd5;stroke-width:1px;stroke-linecap:butt;stroke-linejoin:miter;stroke-opacity:1"
         d="m 20,972.36218 0,-400"
         id="path3779"
         inkscape:connector-curvature="0" />
      <path
         inkscape:connector-curvature="0"
         id="path3781"
         d="m 320,972.36218 0,-400"
         style="fill:none;stroke:#009bd5;stroke-width:1px;stroke-linecap:butt;stroke-linejoin:miter;stroke-opacity:1" />
    </g>
    <path
       transform="translate(600.71429,-139.28571)"
       d="m -314.96411,791.64789 c 0,3.17574 -2.57445,5.75018 -5.75018,5.75018 -3.17574,0 -5.75018,-2.57444 -5.75018,-5.75018 0,-3.17574 2.57444,-5.75018 5.75018,-5.75018 3.17573,0 5.75018,2.57444 5.75018,5.75018 z"
       sodipodi:ry="5.7501802"
       sodipodi:rx="5.7501802"
       sodipodi:cy="791.64789"
       sodipodi:cx="-320.71429"
       id="path3853"
       style="fill:#008000;fill-opacity:1;stroke:none"
       sodipodi:type="arc" />
    <path
       sodipodi:type="arc"
       style="fill:#008000;fill-opacity:1;stroke:none"
       id="path4611"
       sodipodi:cx="-320.71429"
       sodipodi:cy="791.64789"
       sodipodi:rx="5.7501802"
       sodipodi:ry="5.7501802"
       d="m -314.96411,791.64789 c 0,3.17574 -2.57445,5.75018 -5.75018,5.75018 -3.17574,0 -5.75018,-2.57444 -5.75018,-5.75018 0,-3.17574 2.57444,-5.75018 5.75018,-5.75018 3.17573,0 5.75018,2.57444 5.75018,5.75018 z"
       transform="translate(720.71429,40.714292)" />
    <path
       sodipodi:type="arc"
       style="fill:#008000;fill-opacity:1;stroke:none"
       id="path4613"
       sodipodi:cx="-320.71429"
       sodipodi:cy="791.64789"
       sodipodi:rx="5.7501802"
       sodipodi:ry="5.7501802"
       d="m -314.96411,791.64789 c 0,3.17574 -2.57445,5.75018 -5.75018,5.75018 -3.17574,0 -5.75018,-2.57444 -5.75018,-5.75018 0,-3.17574 2.57444,-5.75018 5.75018,-5.75018 3.17573,0 5.75018,2.57444 5.75018,5.75018 z"
       transform="translate(780.71429,-79.28571)" />
    <path
       transform="translate(720.71429,-79.28571)"
       d="m -314.96411,791.64789 c 0,3.17574 -2.57445,5.75018 -5.75018,5.75018 -3.17574,0 -5.75018,-2.57444 -5.75018,-5.75018 0,-3.17574 2.57444,-5.75018 5.75018,-5.75018 3.17573,0 5.75018,2.57444 5.75018,5.75018 z"
       sodipodi:ry="5.7501802"
       sodipodi:rx="5.7501802"
       sodipodi:cy="791.64789"
       sodipodi:cx="-320.71429"
       id="path3039"
       style="fill:#008000;fill-opacity:1;stroke:none"
       sodipodi:type="arc" />
    <path
       transform="translate(540.71429,40.71429)"
       d="m -314.96411,791.64789 c 0,3.17574 -2.57445,5.75018 -5.75018,5.75018 -3.17574,0 -5.75018,-2.57444 -5.75018,-5.75018 0,-3.17574 2.57444,-5.75018 5.75018,-5.75018 3.17573,0 5.75018,2.57444 5.75018,5.75018 z"
       sodipodi:ry="5.7501802"
       sodipodi:rx="5.7501802"
       sodipodi:cy="791.64789"
       sodipodi:cx="-320.71429"
       id="path3043"
       style="fill:#008000;fill-opacity:1;stroke:none"
       sodipodi:type="arc" />
    <path
       sodipodi:type="arc"
       style="fill:#008000;fill-opacity:1;stroke:none"
       id="path3045"
       sodipodi:cx="-320.71429"
       sodipodi:cy="791.64789"
       sodipodi:rx="5.7501802"
       sodipodi:ry="5.7501802"
       d="m -314.96411,791.64789 c 0,3.17574 -2.57445,5.75018 -5.75018,5.75018 -3.17574,0 -5.75018,-2.57444 -5.75018,-5.75018 0,-3.17574 2.57444,-5.75018 5.75018,-5.75018 3.17573,0 5.75018,2.57444 5.75018,5.75018 z"
       transform="translate(600.71429,160.71429)" />
    <path
       transform="translate(660.71429,40.71429)"
       d="m -314.96411,791.64789 c 0,3.17574 -2.57445,5.75018 -5.75018,5.75018 -3.17574,0 -5.75018,-2.57444 -5.75018,-5.75018 0,-3.17574 2.57444,-5.75018 5.75018,-5.75018 3.17573,0 5.75018,2.57444 5.75018,5.75018 z"
       sodipodi:ry="5.7501802"
       sodipodi:rx="5.7501802"
       sodipodi:cy="791.64789"
       sodipodi:cx="-320.71429"
       id="path3047"
       style="fill:#008000;fill-opacity:1;stroke:none"
       sodipodi:type="arc" />
    <path
       sodipodi:type="arc"
       style="fill:#008000;fill-opacity:1;stroke:none"
       id="path3049"
       sodipodi:cx="-320.71429"
       sodipodi:cy="791.64789"
       sodipodi:rx="5.7501802"
       sodipodi:ry="5.7501802"
       d="m -314.96411,791.64789 c 0,3.17574 -2.57445,5.75018 -5.75018,5.75018 -3.17574,0 -5.75018,-2.57444 -5.75018,-5.75018 0,-3.17574 2.57444,-5.75018 5.75018,-5.75018 3.17573,0 5.75018,2.57444 5.75018,5.75018 z"
       transform="translate(600.71429,-79.28571)" />
    <path
       transform="translate(660.71429,-19.28571)"
       d="m -314.96411,791.64789 c 0,3.17574 -2.57445,5.75018 -5.75018,5.75018 -3.17574,0 -5.75018,-2.57444 -5.75018,-5.75018 0,-3.17574 2.57444,-5.75018 5.75018,-5.75018 3.17573,0 5.75018,2.57444 5.75018,5.75018 z"
       sodipodi:ry="5.7501802"
       sodipodi:rx="5.7501802"
       sodipodi:cy="791.64789"
       sodipodi:cx="-320.71429"
       id="path3051"
       style="fill:#008000;fill-opacity:1;stroke:none"
       sodipodi:type="arc" />
    <path
       sodipodi:type="arc"
       style="fill:#008000;fill-opacity:1;stroke:none"
       id="path3053"
       sodipodi:cx="-320.71429"
       sodipodi:cy="791.64789"
       sodipodi:rx="5.7501802"
       sodipodi:ry="5.7501802"
       d="m -314.96411,791.64789 c 0,3.17574 -2.57445,5.75018 -5.75018,5.75018 -3.17574,0 -5.75018,-2.57444 -5.75018,-5.75018 0,-3.17574 2.57444,-5.75018 5.75018,-5.75018 3.17573,0 5.75018,2.57444 5.75018,5.75018 z"
       transform="translate(840.71429,-19.28571)" />
    <path
       transform="translate(720.71429,-199.28571)"
       d="m -314.96411,791.64789 c 0,3.17574 -2.57445,5.75018 -5.75018,5.75018 -3.17574,0 -5.75018,-2.57444 -5.75018,-5.75018 0,-3.17574 2.57444,-5.75018 5.75018,-5.75018 3.17573,0 5.75018,2.57444 5.75018,5.75018 z"
       sodipodi:ry="5.7501802"
       sodipodi:rx="5.7501802"
       sodipodi:cy="791.64789"
       sodipodi:cx="-320.71429"
       id="path3055"
       style="fill:#008000;fill-opacity:1;stroke:none"
       sodipodi:type="arc" />
    <path
       transform="translate(480.71429,100.71429)"
       d="m -314.96411,791.64789 c 0,3.17574 -2.57445,5.75018 -5.75018,5.75018 -3.17574,0 -5.75018,-2.57444 -5.75018,-5.75018 0,-3.17574 2.57444,-5.75018 5.75018,-5.75018 3.17573,0 5.75018,2.57444 5.75018,5.75018 z"
       sodipodi:ry="5.7501802"
       sodipodi:rx="5.7501802"
       sodipodi:cy="791.64789"
       sodipodi:cx="-320.71429"
       id="path3082"
       style="fill:#008000;fill-opacity:1;stroke:none"
       sodipodi:type="arc" />
    <path
       transform="translate(780.71429,40.714292)"
       d="m -314.96411,791.64789 c 0,3.17574 -2.57445,5.75018 -5.75018,5.75018 -3.17574,0 -5.75018,-2.57444 -5.75018,-5.75018 0,-3.17574 2.57444,-5.75018 5.75018,-5.75018 3.17573,0 5.75018,2.57444 5.75018,5.75018 z"
       sodipodi:ry="5.7501802"
       sodipodi:rx="5.7501802"
       sodipodi:cy="791.64789"
       sodipodi:cx="-320.71429"
       id="path3877"
       style="fill:#008000;fill-opacity:1;stroke:none"
       sodipodi:type="arc" />
  </g>
</svg>
