<?xml version="1.0" encoding="UTF-8" standalone="no"?>
<!-- Created with Inkscape (http://www.inkscape.org/) -->

<svg
   xmlns:dc="http://purl.org/dc/elements/1.1/"
   xmlns:cc="http://creativecommons.org/ns#"
   xmlns:rdf="http://www.w3.org/1999/02/22-rdf-syntax-ns#"
   xmlns:svg="http://www.w3.org/2000/svg"
   xmlns="http://www.w3.org/2000/svg"
   xmlns:sodipodi="http://sodipodi.sourceforge.net/DTD/sodipodi-0.dtd"
   xmlns:inkscape="http://www.inkscape.org/namespaces/inkscape"
   width="841"
   height="401"
   id="svg2"
   version="1.1"
   inkscape:version="0.48.4 r9939"
   sodipodi:docname="line_segments_intersect.svg">
  <sodipodi:namedview
     id="base"
     pagecolor="#ffffff"
     bordercolor="#666666"
     borderopacity="1.0"
     inkscape:pageopacity="0.0"
     inkscape:pageshadow="2"
     inkscape:zoom="0.98994949"
     inkscape:cx="525.49188"
     inkscape:cy="188.21183"
     inkscape:document-units="px"
     inkscape:current-layer="layer1"
     showgrid="false"
     inkscape:snap-object-midpoints="true"
     inkscape:object-nodes="true"
     inkscape:object-paths="true"
     inkscape:snap-intersection-paths="true"
     inkscape:window-width="1918"
     inkscape:window-height="1045"
     inkscape:window-x="0"
     inkscape:window-y="34"
     inkscape:window-maximized="0"
     inkscape:snap-global="true"
     fit-margin-top="0"
     fit-margin-left="0"
     fit-margin-right="0"
     fit-margin-bottom="0"
     inkscape:snap-center="true">
    <inkscape:grid
       originy="-79.499998px"
       originx="-139.5px"
       snapvisiblegridlinesonly="true"
       enabled="true"
       visible="true"
       empspacing="5"
       id="grid2985"
       type="xygrid" />
  </sodipodi:namedview>
  <defs
     id="defs4">
    <marker
       inkscape:stockid="Arrow1Mend"
       orient="auto"
       refY="0"
       refX="0"
       id="Arrow1Mend"
       style="overflow:visible">
      <path
         inkscape:connector-curvature="0"
         id="path3870"
         d="M 0,0 5,-5 -12.5,0 5,5 0,0 z"
         style="fill-rule:evenodd;stroke:#000000;stroke-width:1pt"
         transform="matrix(-0.4,0,0,-0.4,-4,0)" />
    </marker>
    <marker
       style="overflow:visible"
       id="Arrow1Send"
       refX="0"
       refY="0"
       orient="auto"
       inkscape:stockid="Arrow1Send">
      <path
         inkscape:connector-curvature="0"
         transform="matrix(-0.2,0,0,-0.2,-1.2,0)"
         style="fill-rule:evenodd;stroke:#000000;stroke-width:1pt"
         d="M 0,0 5,-5 -12.5,0 5,5 0,0 z"
         id="path3876" />
    </marker>
    <marker
       style="overflow:visible"
       id="Arrow1SendB"
       refX="0"
       refY="0"
       orient="auto"
       inkscape:stockid="Arrow1SendB">
      <path
         inkscape:connector-curvature="0"
         transform="matrix(-0.2,0,0,-0.2,-1.2,0)"
         style="fill:#fe0000;fill-rule:evenodd;stroke:#fe0000;stroke-width:1pt"
         d="M 0,0 5,-5 -12.5,0 5,5 0,0 z"
         id="path4306" />
    </marker>
    <marker
       inkscape:stockid="Arrow1Mendg"
       orient="auto"
       refY="0"
       refX="0"
       id="Arrow1Mendg"
       style="overflow:visible">
      <path
         inkscape:connector-curvature="0"
         id="path4557"
         d="M 0,0 5,-5 -12.5,0 5,5 0,0 z"
         style="fill:#fe0000;fill-rule:evenodd;stroke:#fe0000;stroke-width:1pt"
         transform="matrix(-0.4,0,0,-0.4,-4,0)" />
    </marker>
    <marker
       inkscape:stockid="Arrow1Mendgt"
       orient="auto"
       refY="0"
       refX="0"
       id="Arrow1Mendgt"
       style="overflow:visible">
      <path
         inkscape:connector-curvature="0"
         id="path4649"
         d="M 0,0 5,-5 -12.5,0 5,5 0,0 z"
         style="fill:#008000;fill-rule:evenodd;stroke:#008000;stroke-width:1pt"
         transform="matrix(-0.4,0,0,-0.4,-4,0)" />
    </marker>
    <marker
       inkscape:stockid="Arrow1Mendg"
       orient="auto"
       refY="0"
       refX="0"
       id="Arrow1Mendg-3"
       style="overflow:visible">
      <path
         inkscape:connector-curvature="0"
         id="path4557-5"
         d="M 0,0 5,-5 -12.5,0 5,5 0,0 z"
         style="fill:#fe0000;fill-rule:evenodd;stroke:#fe0000;stroke-width:1pt"
         transform="matrix(-0.4,0,0,-0.4,-4,0)" />
    </marker>
    <marker
       inkscape:stockid="Arrow1Mendg"
       orient="auto"
       refY="0"
       refX="0"
       id="marker7056"
       style="overflow:visible">
      <path
         inkscape:connector-curvature="0"
         id="path7058"
         d="M 0,0 5,-5 -12.5,0 5,5 0,0 z"
         style="fill:#fe0000;fill-rule:evenodd;stroke:#fe0000;stroke-width:1pt"
         transform="matrix(-0.4,0,0,-0.4,-4,0)" />
    </marker>
  </defs>
  <metadata
     id="metadata7">
    <rdf:RDF>
      <cc:Work
         rdf:about="">
        <dc:format>image/svg+xml</dc:format>
        <dc:type
           rdf:resource="http://purl.org/dc/dcmitype/StillImage" />
        <dc:title />
      </cc:Work>
    </rdf:RDF>
  </metadata>
  <g
     transform="translate(-139.5,-571.86218)"
     id="layer1"
     inkscape:groupmode="layer"
     inkscape:label="Layer 1">
    <g
       transform="translate(200,3e-6)"
       id="g3812">
      <path
         style="fill:none;stroke:#009bd5;stroke-width:1px;stroke-linecap:butt;stroke-linejoin:miter;stroke-opacity:1"
         d="m 80,972.36218 0,-400"
         id="path2987"
         inkscape:connector-curvature="0" />
      <path
         inkscape:connector-curvature="0"
         id="path3757"
         d="m 140,972.36218 0,-400"
         style="fill:none;stroke:#009bd5;stroke-width:1px;stroke-linecap:butt;stroke-linejoin:miter;stroke-opacity:1" />
      <path
         style="fill:none;stroke:#009bd5;stroke-width:1px;stroke-linecap:butt;stroke-linejoin:miter;stroke-opacity:1"
         d="m 340,772.36218 -400,0"
         id="path3759"
         inkscape:connector-curvature="0" />
      <path
         inkscape:connector-curvature="0"
         id="path3761"
         d="m 340,712.36218 -400,0"
         style="fill:none;stroke:#009bd5;stroke-width:1px;stroke-linecap:butt;stroke-linejoin:miter;stroke-opacity:1" />
      <path
         inkscape:connector-curvature="0"
         id="path3763"
         d="m 340,652.36218 -400,0"
         style="fill:none;stroke:#009bd5;stroke-width:1px;stroke-linecap:butt;stroke-linejoin:miter;stroke-opacity:1" />
      <path
         style="fill:none;stroke:#009bd5;stroke-width:1px;stroke-linecap:butt;stroke-linejoin:miter;stroke-opacity:1"
         d="m 340,592.36218 -400,0"
         id="path3765"
         inkscape:connector-curvature="0" />
      <path
         style="fill:none;stroke:#009bd5;stroke-width:1px;stroke-linecap:butt;stroke-linejoin:miter;stroke-opacity:1"
         d="m 340,892.36218 -400,0"
         id="path3767"
         inkscape:connector-curvature="0" />
      <path
         inkscape:connector-curvature="0"
         id="path3769"
         d="m 340,832.36218 -400,0"
         style="fill:none;stroke:#009bd5;stroke-width:1px;stroke-linecap:butt;stroke-linejoin:miter;stroke-opacity:1" />
      <path
         inkscape:connector-curvature="0"
         id="path3771"
         d="m 340,952.36218 -400,0"
         style="fill:none;stroke:#009bd5;stroke-width:1px;stroke-linecap:butt;stroke-linejoin:miter;stroke-opacity:1" />
      <path
         inkscape:connector-curvature="0"
         id="path3773"
         d="m 200,972.36218 0,-400"
         style="fill:none;stroke:#009bd5;stroke-width:1px;stroke-linecap:butt;stroke-linejoin:miter;stroke-opacity:1" />
      <path
         style="fill:none;stroke:#009bd5;stroke-width:1px;stroke-linecap:butt;stroke-linejoin:miter;stroke-opacity:1"
         d="m 260,972.36218 0,-400"
         id="path3775"
         inkscape:connector-curvature="0" />
      <path
         style="fill:none;stroke:#009bd5;stroke-width:1px;stroke-linecap:butt;stroke-linejoin:miter;stroke-opacity:1"
         d="m -40,972.36218 0,-400"
         id="path3777"
         inkscape:connector-curvature="0" />
      <path
         inkscape:connector-curvature="0"
         id="path3779"
         d="m 20,972.36218 0,-400"
         style="fill:none;stroke:#009bd5;stroke-width:1px;stroke-linecap:butt;stroke-linejoin:miter;stroke-opacity:1" />
      <path
         style="fill:none;stroke:#009bd5;stroke-width:1px;stroke-linecap:butt;stroke-linejoin:miter;stroke-opacity:1"
         d="m 320,972.36218 0,-400"
         id="path3781"
         inkscape:connector-curvature="0" />
    </g>
    <path
       sodipodi:type="arc"
       style="fill:#ff0000;fill-opacity:1;stroke:none"
       id="path4490"
       sodipodi:cx="-102.5"
       sodipodi:cy="243.5"
       sodipodi:rx="3.2142856"
       sodipodi:ry="3.2142856"
       d="m -99.285714,243.5 c 0,1.7752 -1.439086,3.21429 -3.214286,3.21429 -1.7752,0 -3.21429,-1.43909 -3.21429,-3.21429 0,-1.7752 1.43909,-3.21429 3.21429,-3.21429 1.7752,0 3.214286,1.43909 3.214286,3.21429 z"
       transform="matrix(1.4444445,0,0,1.4444445,368.05556,540.63995)" />
    <path
       transform="matrix(1.4444445,0,0,1.4444445,608.05556,360.63995)"
       d="m -99.285714,243.5 c 0,1.7752 -1.439086,3.21429 -3.214286,3.21429 -1.7752,0 -3.21429,-1.43909 -3.21429,-3.21429 0,-1.7752 1.43909,-3.21429 3.21429,-3.21429 1.7752,0 3.214286,1.43909 3.214286,3.21429 z"
       sodipodi:ry="3.2142856"
       sodipodi:rx="3.2142856"
       sodipodi:cy="243.5"
       sodipodi:cx="-102.5"
       id="path4494"
       style="fill:#ff0000;fill-opacity:1;stroke:none"
       sodipodi:type="arc" />
    <path
       sodipodi:type="arc"
       style="fill:#008000;fill-opacity:1;stroke:none"
       id="path4496"
       sodipodi:cx="-102.5"
       sodipodi:cy="243.5"
       sodipodi:rx="3.2142856"
       sodipodi:ry="3.2142856"
       d="m -99.285714,243.5 c 0,1.7752 -1.439086,3.21429 -3.214286,3.21429 -1.7752,0 -3.21429,-1.43909 -3.21429,-3.21429 0,-1.7752 1.43909,-3.21429 3.21429,-3.21429 1.7752,0 3.214286,1.43909 3.214286,3.21429 z"
       transform="matrix(1.4444445,0,0,1.4444445,428.05556,240.63995)" />
    <path
       transform="matrix(1.4444445,0,0,1.4444445,488.05556,600.63995)"
       d="m -99.285714,243.5 c 0,1.7752 -1.439086,3.21429 -3.214286,3.21429 -1.7752,0 -3.21429,-1.43909 -3.21429,-3.21429 0,-1.7752 1.43909,-3.21429 3.21429,-3.21429 1.7752,0 3.214286,1.43909 3.214286,3.21429 z"
       sodipodi:ry="3.2142856"
       sodipodi:rx="3.2142856"
       sodipodi:cy="243.5"
       sodipodi:cx="-102.5"
       id="path4498"
       style="fill:#008000;fill-opacity:1;stroke:none"
       sodipodi:type="arc" />
    <path
       style="fill:none;stroke:#008000;stroke-width:1.20000005;stroke-linecap:butt;stroke-linejoin:miter;stroke-miterlimit:4;stroke-opacity:1;stroke-dasharray:none"
       d="M 140.5,20.500003 200.5,380.5"
       id="path4500"
       inkscape:connector-curvature="0"
       sodipodi:nodetypes="cc"
       transform="translate(139.5,571.86218)" />
    <path
       transform="translate(139.5,571.86218)"
       inkscape:connector-curvature="0"
       id="path5312"
       d="m 80.5,320.5 240,-180"
       style="fill:none;stroke:#ff0000;stroke-width:1.20000005;stroke-linecap:butt;stroke-linejoin:miter;stroke-miterlimit:4;stroke-opacity:1;stroke-dasharray:none"
       sodipodi:nodetypes="cc" />
    <g
       id="g5314"
       transform="translate(640,3e-6)">
      <path
         inkscape:connector-curvature="0"
         id="path5316"
         d="m 80,972.36218 0,-400"
         style="fill:none;stroke:#009bd5;stroke-width:1px;stroke-linecap:butt;stroke-linejoin:miter;stroke-opacity:1" />
      <path
         style="fill:none;stroke:#009bd5;stroke-width:1px;stroke-linecap:butt;stroke-linejoin:miter;stroke-opacity:1"
         d="m 140,972.36218 0,-400"
         id="path5318"
         inkscape:connector-curvature="0" />
      <path
         inkscape:connector-curvature="0"
         id="path5320"
         d="m 340,772.36218 -400,0"
         style="fill:none;stroke:#009bd5;stroke-width:1px;stroke-linecap:butt;stroke-linejoin:miter;stroke-opacity:1" />
      <path
         style="fill:none;stroke:#009bd5;stroke-width:1px;stroke-linecap:butt;stroke-linejoin:miter;stroke-opacity:1"
         d="m 340,712.36218 -400,0"
         id="path5322"
         inkscape:connector-curvature="0" />
      <path
         style="fill:none;stroke:#009bd5;stroke-width:1px;stroke-linecap:butt;stroke-linejoin:miter;stroke-opacity:1"
         d="m 340,652.36218 -400,0"
         id="path5324"
         inkscape:connector-curvature="0" />
      <path
         inkscape:connector-curvature="0"
         id="path5326"
         d="m 340,592.36218 -400,0"
         style="fill:none;stroke:#009bd5;stroke-width:1px;stroke-linecap:butt;stroke-linejoin:miter;stroke-opacity:1" />
      <path
         inkscape:connector-curvature="0"
         id="path5328"
         d="m 340,892.36218 -400,0"
         style="fill:none;stroke:#009bd5;stroke-width:1px;stroke-linecap:butt;stroke-linejoin:miter;stroke-opacity:1" />
      <path
         style="fill:none;stroke:#009bd5;stroke-width:1px;stroke-linecap:butt;stroke-linejoin:miter;stroke-opacity:1"
         d="m 340,832.36218 -400,0"
         id="path5330"
         inkscape:connector-curvature="0" />
      <path
         style="fill:none;stroke:#009bd5;stroke-width:1px;stroke-linecap:butt;stroke-linejoin:miter;stroke-opacity:1"
         d="m 340,952.36218 -400,0"
         id="path5332"
         inkscape:connector-curvature="0" />
      <path
         style="fill:none;stroke:#009bd5;stroke-width:1px;stroke-linecap:butt;stroke-linejoin:miter;stroke-opacity:1"
         d="m 200,972.36218 0,-400"
         id="path5334"
         inkscape:connector-curvature="0" />
      <path
         inkscape:connector-curvature="0"
         id="path5336"
         d="m 260,972.36218 0,-400"
         style="fill:none;stroke:#009bd5;stroke-width:1px;stroke-linecap:butt;stroke-linejoin:miter;stroke-opacity:1" />
      <path
         inkscape:connector-curvature="0"
         id="path5338"
         d="m -40,972.36218 0,-400"
         style="fill:none;stroke:#009bd5;stroke-width:1px;stroke-linecap:butt;stroke-linejoin:miter;stroke-opacity:1" />
      <path
         style="fill:none;stroke:#009bd5;stroke-width:1px;stroke-linecap:butt;stroke-linejoin:miter;stroke-opacity:1"
         d="m 20,972.36218 0,-400"
         id="path5340"
         inkscape:connector-curvature="0" />
      <path
         inkscape:connector-curvature="0"
         id="path5342"
         d="m 320,972.36218 0,-400"
         style="fill:none;stroke:#009bd5;stroke-width:1px;stroke-linecap:butt;stroke-linejoin:miter;stroke-opacity:1" />
    </g>
    <path
       transform="matrix(1.4444445,0,0,1.4444445,748.05557,300.63995)"
       d="m -99.285714,243.5 a 3.2142856,3.2142856 0 1 1 -6.428576,0 3.2142856,3.2142856 0 1 1 6.428576,0 z"
       sodipodi:ry="3.2142856"
       sodipodi:rx="3.2142856"
       sodipodi:cy="243.5"
       sodipodi:cx="-102.5"
       id="path5344"
       style="fill:#ff0000;fill-opacity:1;stroke:none"
       sodipodi:type="arc" />
    <path
       sodipodi:type="arc"
       style="fill:#ff0000;fill-opacity:1;stroke:none"
       id="path5346"
       sodipodi:cx="-102.5"
       sodipodi:cy="243.5"
       sodipodi:rx="3.2142856"
       sodipodi:ry="3.2142856"
       d="m -99.285714,243.5 a 3.2142856,3.2142856 0 1 1 -6.428576,0 3.2142856,3.2142856 0 1 1 6.428576,0 z"
       transform="matrix(1.4444445,0,0,1.4444445,1108.0556,420.63994)" />
    <path
       transform="matrix(1.4444445,0,0,1.4444445,868.05556,420.63995)"
       d="m -99.285714,243.5 a 3.2142856,3.2142856 0 1 1 -6.428576,0 3.2142856,3.2142856 0 1 1 6.428576,0 z"
       sodipodi:ry="3.2142856"
       sodipodi:rx="3.2142856"
       sodipodi:cy="243.5"
       sodipodi:cx="-102.5"
       id="path5348"
       style="fill:#008000;fill-opacity:1;stroke:none"
       sodipodi:type="arc" />
    <path
       sodipodi:type="arc"
       style="fill:#008000;fill-opacity:1;stroke:none"
       id="path5350"
       sodipodi:cx="-102.5"
       sodipodi:cy="243.5"
       sodipodi:rx="3.2142856"
       sodipodi:ry="3.2142856"
       d="m -99.285714,243.5 a 3.2142856,3.2142856 0 1 1 -6.428576,0 3.2142856,3.2142856 0 1 1 6.428576,0 z"
       transform="matrix(1.4444445,0,0,1.4444445,988.05556,600.63995)" />
    <path
       sodipodi:nodetypes="cc"
       inkscape:connector-curvature="0"
       id="path5352"
       d="m 720,772.36218 120,180"
       style="fill:none;stroke:#008000;stroke-width:1.20000005;stroke-linecap:butt;stroke-linejoin:miter;stroke-miterlimit:4;stroke-opacity:1;stroke-dasharray:none" />
    <path
       sodipodi:nodetypes="cc"
       style="fill:none;stroke:#ff0000;stroke-width:1.20000005;stroke-linecap:butt;stroke-linejoin:miter;stroke-miterlimit:4;stroke-opacity:1;stroke-dasharray:none"
       d="m 600,652.36218 360,120"
       id="path5354"
       inkscape:connector-curvature="0" />
  </g>
</svg>
