<?xml version="1.0" encoding="UTF-8" standalone="no"?>
<!-- Created with Inkscape (http://www.inkscape.org/) -->

<svg
   xmlns:dc="http://purl.org/dc/elements/1.1/"
   xmlns:cc="http://creativecommons.org/ns#"
   xmlns:rdf="http://www.w3.org/1999/02/22-rdf-syntax-ns#"
   xmlns:svg="http://www.w3.org/2000/svg"
   xmlns="http://www.w3.org/2000/svg"
   xmlns:sodipodi="http://sodipodi.sourceforge.net/DTD/sodipodi-0.dtd"
   xmlns:inkscape="http://www.inkscape.org/namespaces/inkscape"
   width="419.98663"
   height="402.47485"
   id="svg2"
   version="1.1"
   inkscape:version="0.48.4 r9939"
   sodipodi:docname="n-gon-area1.svg">
  <sodipodi:namedview
     id="base"
     pagecolor="#ffffff"
     bordercolor="#666666"
     borderopacity="1.0"
     inkscape:pageopacity="0.0"
     inkscape:pageshadow="2"
     inkscape:zoom="1.4"
     inkscape:cx="262.81073"
     inkscape:cy="185.44274"
     inkscape:document-units="px"
     inkscape:current-layer="layer1"
     showgrid="false"
     inkscape:snap-object-midpoints="true"
     inkscape:object-nodes="true"
     inkscape:object-paths="true"
     inkscape:snap-intersection-paths="true"
     inkscape:window-width="1918"
     inkscape:window-height="1045"
     inkscape:window-x="0"
     inkscape:window-y="34"
     inkscape:window-maximized="0"
     inkscape:snap-global="true"
     fit-margin-top="0"
     fit-margin-left="0"
     fit-margin-right="0"
     fit-margin-bottom="0">
    <inkscape:grid
       originy="-79.987183px"
       originx="-136.86006px"
       snapvisiblegridlinesonly="true"
       enabled="true"
       visible="true"
       empspacing="5"
       id="grid2985"
       type="xygrid" />
  </sodipodi:namedview>
  <defs
     id="defs4">
    <marker
       inkscape:stockid="Arrow1Mend"
       orient="auto"
       refY="0"
       refX="0"
       id="Arrow1Mend"
       style="overflow:visible">
      <path
         inkscape:connector-curvature="0"
         id="path3870"
         d="M 0,0 5,-5 -12.5,0 5,5 0,0 z"
         style="fill-rule:evenodd;stroke:#000000;stroke-width:1pt"
         transform="matrix(-0.4,0,0,-0.4,-4,0)" />
    </marker>
    <marker
       style="overflow:visible"
       id="Arrow1Send"
       refX="0"
       refY="0"
       orient="auto"
       inkscape:stockid="Arrow1Send">
      <path
         inkscape:connector-curvature="0"
         transform="matrix(-0.2,0,0,-0.2,-1.2,0)"
         style="fill-rule:evenodd;stroke:#000000;stroke-width:1pt"
         d="M 0,0 5,-5 -12.5,0 5,5 0,0 z"
         id="path3876" />
    </marker>
    <marker
       style="overflow:visible"
       id="Arrow1SendB"
       refX="0"
       refY="0"
       orient="auto"
       inkscape:stockid="Arrow1SendB">
      <path
         inkscape:connector-curvature="0"
         transform="matrix(-0.2,0,0,-0.2,-1.2,0)"
         style="fill:#fe0000;fill-rule:evenodd;stroke:#fe0000;stroke-width:1pt"
         d="M 0,0 5,-5 -12.5,0 5,5 0,0 z"
         id="path4306" />
    </marker>
    <marker
       inkscape:stockid="Arrow1Mendg"
       orient="auto"
       refY="0"
       refX="0"
       id="Arrow1Mendg"
       style="overflow:visible">
      <path
         inkscape:connector-curvature="0"
         id="path4557"
         d="M 0,0 5,-5 -12.5,0 5,5 0,0 z"
         style="fill:#fe0000;fill-rule:evenodd;stroke:#fe0000;stroke-width:1pt"
         transform="matrix(-0.4,0,0,-0.4,-4,0)" />
    </marker>
    <marker
       inkscape:stockid="Arrow1Mendgt"
       orient="auto"
       refY="0"
       refX="0"
       id="Arrow1Mendgt"
       style="overflow:visible">
      <path
         inkscape:connector-curvature="0"
         id="path4649"
         d="M 0,0 5,-5 -12.5,0 5,5 0,0 z"
         style="fill:#008000;fill-rule:evenodd;stroke:#008000;stroke-width:1pt"
         transform="matrix(-0.4,0,0,-0.4,-4,0)" />
    </marker>
    <marker
       inkscape:stockid="Arrow1Mendg"
       orient="auto"
       refY="0"
       refX="0"
       id="Arrow1Mendg-2"
       style="overflow:visible">
      <path
         inkscape:connector-curvature="0"
         id="path4557-2"
         d="M 0,0 5,-5 -12.5,0 5,5 0,0 z"
         style="fill:#fe0000;fill-rule:evenodd;stroke:#fe0000;stroke-width:1pt"
         transform="matrix(-0.4,0,0,-0.4,-4,0)" />
    </marker>
    <marker
       inkscape:stockid="Arrow1Mendg"
       orient="auto"
       refY="0"
       refX="0"
       id="marker6816"
       style="overflow:visible">
      <path
         inkscape:connector-curvature="0"
         id="path6818"
         d="M 0,0 5,-5 -12.5,0 5,5 0,0 z"
         style="fill:#fe0000;fill-rule:evenodd;stroke:#fe0000;stroke-width:1pt"
         transform="matrix(-0.4,0,0,-0.4,-4,0)" />
    </marker>
  </defs>
  <metadata
     id="metadata7">
    <rdf:RDF>
      <cc:Work
         rdf:about="">
        <dc:format>image/svg+xml</dc:format>
        <dc:type
           rdf:resource="http://purl.org/dc/dcmitype/StillImage" />
        <dc:title />
      </cc:Work>
    </rdf:RDF>
  </metadata>
  <g
     transform="translate(-136.86006,-569.90015)"
     id="layer1"
     inkscape:groupmode="layer"
     inkscape:label="Layer 1">
    <g
       transform="translate(200,0)"
       id="g3812">
      <path
         style="fill:none;stroke:#009bd5;stroke-width:1px;stroke-linecap:butt;stroke-linejoin:miter;stroke-opacity:1"
         d="m 80,972.36218 0,-400"
         id="path2987"
         inkscape:connector-curvature="0" />
      <path
         inkscape:connector-curvature="0"
         id="path3757"
         d="m 140,972.36218 0,-400"
         style="fill:none;stroke:#009bd5;stroke-width:1px;stroke-linecap:butt;stroke-linejoin:miter;stroke-opacity:1" />
      <path
         style="fill:none;stroke:#009bd5;stroke-width:1px;stroke-linecap:butt;stroke-linejoin:miter;stroke-opacity:1"
         d="m 340,772.36218 -400,0"
         id="path3759"
         inkscape:connector-curvature="0" />
      <path
         inkscape:connector-curvature="0"
         id="path3761"
         d="m 340,712.36218 -400,0"
         style="fill:none;stroke:#009bd5;stroke-width:1px;stroke-linecap:butt;stroke-linejoin:miter;stroke-opacity:1" />
      <path
         inkscape:connector-curvature="0"
         id="path3763"
         d="m 340,652.36218 -400,0"
         style="fill:none;stroke:#009bd5;stroke-width:1px;stroke-linecap:butt;stroke-linejoin:miter;stroke-opacity:1" />
      <path
         style="fill:none;stroke:#009bd5;stroke-width:1px;stroke-linecap:butt;stroke-linejoin:miter;stroke-opacity:1"
         d="m 340,592.36218 -400,0"
         id="path3765"
         inkscape:connector-curvature="0" />
      <path
         style="fill:none;stroke:#009bd5;stroke-width:1px;stroke-linecap:butt;stroke-linejoin:miter;stroke-opacity:1"
         d="m 340,892.36218 -400,0"
         id="path3767"
         inkscape:connector-curvature="0" />
      <path
         inkscape:connector-curvature="0"
         id="path3769"
         d="m 340,832.36218 -400,0"
         style="fill:none;stroke:#009bd5;stroke-width:1px;stroke-linecap:butt;stroke-linejoin:miter;stroke-opacity:1" />
      <path
         inkscape:connector-curvature="0"
         id="path3771"
         d="m 340,952.36218 -400,0"
         style="fill:none;stroke:#009bd5;stroke-width:1px;stroke-linecap:butt;stroke-linejoin:miter;stroke-opacity:1" />
      <path
         inkscape:connector-curvature="0"
         id="path3773"
         d="m 200,972.36218 0,-400"
         style="fill:none;stroke:#009bd5;stroke-width:1px;stroke-linecap:butt;stroke-linejoin:miter;stroke-opacity:1" />
      <path
         style="fill:none;stroke:#009bd5;stroke-width:1px;stroke-linecap:butt;stroke-linejoin:miter;stroke-opacity:1"
         d="m 260,972.36218 0,-400"
         id="path3775"
         inkscape:connector-curvature="0" />
      <path
         style="fill:none;stroke:#009bd5;stroke-width:1px;stroke-linecap:butt;stroke-linejoin:miter;stroke-opacity:1"
         d="m -40,972.36218 0,-400"
         id="path3777"
         inkscape:connector-curvature="0" />
      <path
         inkscape:connector-curvature="0"
         id="path3779"
         d="m 20,972.36218 0,-400"
         style="fill:none;stroke:#009bd5;stroke-width:1px;stroke-linecap:butt;stroke-linejoin:miter;stroke-opacity:1" />
      <path
         style="fill:none;stroke:#009bd5;stroke-width:1px;stroke-linecap:butt;stroke-linejoin:miter;stroke-opacity:1"
         d="m 320,972.36218 0,-400"
         id="path3781"
         inkscape:connector-curvature="0" />
    </g>
    <path
       transform="translate(480.71429,40.71429)"
       d="m -314.96411,791.64789 c 0,3.17574 -2.57445,5.75018 -5.75018,5.75018 -3.17574,0 -5.75018,-2.57444 -5.75018,-5.75018 0,-3.17574 2.57444,-5.75018 5.75018,-5.75018 3.17573,0 5.75018,2.57444 5.75018,5.75018 z"
       sodipodi:ry="5.7501802"
       sodipodi:rx="5.7501802"
       sodipodi:cy="791.64789"
       sodipodi:cx="-320.71429"
       id="path3799"
       style="fill:#000000;fill-opacity:1;stroke:none"
       sodipodi:type="arc" />
    <path
       sodipodi:type="arc"
       style="fill:#000000;fill-opacity:1;stroke:none"
       id="path6219"
       sodipodi:cx="-320.71429"
       sodipodi:cy="791.64789"
       sodipodi:rx="5.7501802"
       sodipodi:ry="5.7501802"
       d="m -314.96411,791.64789 c 0,3.17574 -2.57445,5.75018 -5.75018,5.75018 -3.17574,0 -5.75018,-2.57444 -5.75018,-5.75018 0,-3.17574 2.57444,-5.75018 5.75018,-5.75018 3.17573,0 5.75018,2.57444 5.75018,5.75018 z"
       transform="translate(600.71429,-79.285708)" />
    <path
       transform="translate(540.71429,-139.28571)"
       d="m -314.96411,791.64789 c 0,3.17574 -2.57445,5.75018 -5.75018,5.75018 -3.17574,0 -5.75018,-2.57444 -5.75018,-5.75018 0,-3.17574 2.57444,-5.75018 5.75018,-5.75018 3.17573,0 5.75018,2.57444 5.75018,5.75018 z"
       sodipodi:ry="5.7501802"
       sodipodi:rx="5.7501802"
       sodipodi:cy="791.64789"
       sodipodi:cx="-320.71429"
       id="path6221"
       style="fill:#000000;fill-opacity:1;stroke:none"
       sodipodi:type="arc" />
    <path
       sodipodi:type="arc"
       style="fill:#000000;fill-opacity:1;stroke:none"
       id="path6223"
       sodipodi:cx="-320.71429"
       sodipodi:cy="791.64789"
       sodipodi:rx="5.7501802"
       sodipodi:ry="5.7501802"
       d="m -314.96411,791.64789 c 0,3.17574 -2.57445,5.75018 -5.75018,5.75018 -3.17574,0 -5.75018,-2.57444 -5.75018,-5.75018 0,-3.17574 2.57444,-5.75018 5.75018,-5.75018 3.17573,0 5.75018,2.57444 5.75018,5.75018 z"
       transform="translate(720.71429,-139.28571)" />
    <path
       transform="translate(720.71429,-199.28571)"
       d="m -314.96411,791.64789 c 0,3.17574 -2.57445,5.75018 -5.75018,5.75018 -3.17574,0 -5.75018,-2.57444 -5.75018,-5.75018 0,-3.17574 2.57444,-5.75018 5.75018,-5.75018 3.17573,0 5.75018,2.57444 5.75018,5.75018 z"
       sodipodi:ry="5.7501802"
       sodipodi:rx="5.7501802"
       sodipodi:cy="791.64789"
       sodipodi:cx="-320.71429"
       id="path6225"
       style="fill:#000000;fill-opacity:1;stroke:none"
       sodipodi:type="arc" />
    <path
       sodipodi:type="arc"
       style="fill:#000000;fill-opacity:1;stroke:none"
       id="path6227"
       sodipodi:cx="-320.71429"
       sodipodi:cy="791.64789"
       sodipodi:rx="5.7501802"
       sodipodi:ry="5.7501802"
       d="m -314.96411,791.64789 c 0,3.17574 -2.57445,5.75018 -5.75018,5.75018 -3.17574,0 -5.75018,-2.57444 -5.75018,-5.75018 0,-3.17574 2.57444,-5.75018 5.75018,-5.75018 3.17573,0 5.75018,2.57444 5.75018,5.75018 z"
       transform="translate(720.71429,-19.28571)" />
    <path
       transform="translate(840.71429,-79.28571)"
       d="m -314.96411,791.64789 c 0,3.17574 -2.57445,5.75018 -5.75018,5.75018 -3.17574,0 -5.75018,-2.57444 -5.75018,-5.75018 0,-3.17574 2.57444,-5.75018 5.75018,-5.75018 3.17573,0 5.75018,2.57444 5.75018,5.75018 z"
       sodipodi:ry="5.7501802"
       sodipodi:rx="5.7501802"
       sodipodi:cy="791.64789"
       sodipodi:cx="-320.71429"
       id="path6229"
       style="fill:#000000;fill-opacity:1;stroke:none"
       sodipodi:type="arc" />
    <path
       sodipodi:type="arc"
       style="fill:#000000;fill-opacity:1;stroke:none"
       id="path6231"
       sodipodi:cx="-320.71429"
       sodipodi:cy="791.64789"
       sodipodi:rx="5.7501802"
       sodipodi:ry="5.7501802"
       d="m -314.96411,791.64789 c 0,3.17574 -2.57445,5.75018 -5.75018,5.75018 -3.17574,0 -5.75018,-2.57444 -5.75018,-5.75018 0,-3.17574 2.57444,-5.75018 5.75018,-5.75018 3.17573,0 5.75018,2.57444 5.75018,5.75018 z"
       transform="translate(840.71429,100.71429)" />
    <path
       transform="translate(600.71429,100.71429)"
       d="m -314.96411,791.64789 c 0,3.17574 -2.57445,5.75018 -5.75018,5.75018 -3.17574,0 -5.75018,-2.57444 -5.75018,-5.75018 0,-3.17574 2.57444,-5.75018 5.75018,-5.75018 3.17573,0 5.75018,2.57444 5.75018,5.75018 z"
       sodipodi:ry="5.7501802"
       sodipodi:rx="5.7501802"
       sodipodi:cy="791.64789"
       sodipodi:cx="-320.71429"
       id="path6233"
       style="fill:#000000;fill-opacity:1;stroke:none"
       sodipodi:type="arc" />
    <path
       sodipodi:type="arc"
       style="fill:#000000;fill-opacity:1;stroke:none"
       id="path6235"
       sodipodi:cx="-320.71429"
       sodipodi:cy="791.64789"
       sodipodi:rx="5.7501802"
       sodipodi:ry="5.7501802"
       d="m -314.96411,791.64789 c 0,3.17574 -2.57445,5.75018 -5.75018,5.75018 -3.17574,0 -5.75018,-2.57444 -5.75018,-5.75018 0,-3.17574 2.57444,-5.75018 5.75018,-5.75018 3.17573,0 5.75018,2.57444 5.75018,5.75018 z"
       transform="translate(600.71429,-19.28571)" />
    <path
       transform="translate(660.71429,-19.28571)"
       d="m -314.96411,791.64789 c 0,3.17574 -2.57445,5.75018 -5.75018,5.75018 -3.17574,0 -5.75018,-2.57444 -5.75018,-5.75018 0,-3.17574 2.57444,-5.75018 5.75018,-5.75018 3.17573,0 5.75018,2.57444 5.75018,5.75018 z"
       sodipodi:ry="5.7501802"
       sodipodi:rx="5.7501802"
       sodipodi:cy="791.64789"
       sodipodi:cx="-320.71429"
       id="path6237"
       style="fill:#000000;fill-opacity:1;stroke:none"
       sodipodi:type="arc" />
    <path
       style="fill:none;stroke:#000000;stroke-width:2.20000005;stroke-linecap:butt;stroke-linejoin:miter;stroke-miterlimit:4;stroke-opacity:1;stroke-dasharray:none"
       d="m 159.87092,832.68138 120,-120 -60,-60 180,-60 0,60 120,60 -120,60 120,120 -180,-120 -60,120 0,-120 z"
       id="path6217-7"
       inkscape:connector-curvature="0"
       sodipodi:nodetypes="cccccccccccc" />
    <text
       xml:space="preserve"
       style="font-size:40px;font-style:normal;font-weight:normal;line-height:125%;letter-spacing:0px;word-spacing:0px;fill:#666666;fill-opacity:1;stroke:none;font-family:Sans"
       x="406.37091"
       y="650.6814"
       id="text6724"
       sodipodi:linespacing="125%"><tspan
         sodipodi:role="line"
         id="tspan6726"
         x="406.37091"
         y="650.6814"
         style="font-size:28px;font-style:italic;fill:#666666">1</tspan></text>
    <text
       sodipodi:linespacing="125%"
       id="text6728"
       y="590.6814"
       x="408.44235"
       style="font-size:40px;font-style:normal;font-weight:normal;line-height:125%;letter-spacing:0px;word-spacing:0px;fill:#666666;fill-opacity:1;stroke:none;font-family:Sans"
       xml:space="preserve"><tspan
         style="font-size:28px;font-style:italic;fill:#666666"
         y="590.6814"
         x="408.44235"
         id="tspan6730"
         sodipodi:role="line">2</tspan></text>
    <text
       xml:space="preserve"
       style="font-size:40px;font-style:normal;font-weight:normal;line-height:125%;letter-spacing:0px;word-spacing:0px;fill:#666666;fill-opacity:1;stroke:none;font-family:Sans"
       x="246.2995"
       y="722.82428"
       id="text6732"
       sodipodi:linespacing="125%"><tspan
         sodipodi:role="line"
         id="tspan6734"
         x="246.2995"
         y="722.82428"
         style="font-size:28px;font-style:italic;fill:#666666">4</tspan></text>
    <text
       xml:space="preserve"
       style="font-size:40px;font-style:normal;font-weight:normal;line-height:125%;letter-spacing:0px;word-spacing:0px;fill:#666666;fill-opacity:1;stroke:none;font-family:Sans"
       x="525.44238"
       y="721.82428"
       id="text6740"
       sodipodi:linespacing="125%"><tspan
         sodipodi:role="line"
         id="tspan6742"
         x="525.44238"
         y="721.82428"
         style="font-size:28px;font-style:italic;fill:#666666">11</tspan></text>
    <text
       sodipodi:linespacing="125%"
       id="text6744"
       y="919.25281"
       x="523.44238"
       style="font-size:40px;font-style:normal;font-weight:normal;line-height:125%;letter-spacing:0px;word-spacing:0px;fill:#666666;fill-opacity:1;stroke:none;font-family:Sans"
       xml:space="preserve"><tspan
         style="font-size:28px;font-style:italic;fill:#666666"
         y="919.25281"
         x="523.44238"
         id="tspan6746"
         sodipodi:role="line">9</tspan></text>
    <text
       xml:space="preserve"
       style="font-size:40px;font-style:normal;font-weight:normal;line-height:125%;letter-spacing:0px;word-spacing:0px;fill:#666666;fill-opacity:1;stroke:none;font-family:Sans"
       x="256.44235"
       y="920.10999"
       id="text6748"
       sodipodi:linespacing="125%"><tspan
         sodipodi:role="line"
         id="tspan6750"
         x="256.44235"
         y="920.10999"
         style="font-size:28px;font-style:italic;fill:#666666">7</tspan></text>
    <text
       sodipodi:linespacing="125%"
       id="text6752"
       y="842.82428"
       x="136.29951"
       style="font-size:40px;font-style:normal;font-weight:normal;line-height:125%;letter-spacing:0px;word-spacing:0px;fill:#666666;fill-opacity:1;stroke:none;font-family:Sans"
       xml:space="preserve"><tspan
         style="font-size:28px;font-style:italic;fill:#666666"
         y="842.82428"
         x="136.29951"
         id="tspan6754"
         sodipodi:role="line">5</tspan></text>
    <text
       sodipodi:linespacing="125%"
       id="text6756"
       y="651.39569"
       x="202.01379"
       style="font-size:40px;font-style:normal;font-weight:normal;line-height:125%;letter-spacing:0px;word-spacing:0px;fill:#666666;fill-opacity:1;stroke:none;font-family:Sans"
       xml:space="preserve"><tspan
         style="font-size:28px;font-style:italic;fill:#666666"
         y="651.39569"
         x="202.01379"
         id="tspan6758"
         sodipodi:role="line">3</tspan></text>
    <text
       sodipodi:linespacing="125%"
       id="text6951"
       y="804.25287"
       x="257.72806"
       style="font-size:40px;font-style:normal;font-weight:normal;line-height:125%;letter-spacing:0px;word-spacing:0px;fill:#666666;fill-opacity:1;stroke:none;font-family:Sans"
       xml:space="preserve"><tspan
         style="font-size:28px;font-style:italic;fill:#666666"
         y="804.25287"
         x="257.72806"
         id="tspan6953"
         sodipodi:role="line">6</tspan></text>
    <text
       sodipodi:linespacing="125%"
       id="text6955"
       y="810.10999"
       x="334.44235"
       style="font-size:40px;font-style:normal;font-weight:normal;line-height:125%;letter-spacing:0px;word-spacing:0px;fill:#666666;fill-opacity:1;stroke:none;font-family:Sans"
       xml:space="preserve"><tspan
         style="font-size:28px;font-style:italic;fill:#666666"
         y="810.10999"
         x="334.44235"
         id="tspan6957"
         sodipodi:role="line">8</tspan></text>
    <text
       xml:space="preserve"
       style="font-size:40px;font-style:normal;font-weight:normal;line-height:125%;letter-spacing:0px;word-spacing:0px;fill:#666666;fill-opacity:1;stroke:none;font-family:Sans"
       x="417.44235"
       y="786.25281"
       id="text6959"
       sodipodi:linespacing="125%"><tspan
         sodipodi:role="line"
         id="tspan6961"
         x="417.44235"
         y="786.25281"
         style="font-size:28px;font-style:italic;fill:#666666">10</tspan></text>
  </g>
</svg>
