<?xml version="1.0" encoding="UTF-8" standalone="no"?>
<!-- Created with Inkscape (http://www.inkscape.org/) -->

<svg
   xmlns:dc="http://purl.org/dc/elements/1.1/"
   xmlns:cc="http://creativecommons.org/ns#"
   xmlns:rdf="http://www.w3.org/1999/02/22-rdf-syntax-ns#"
   xmlns:svg="http://www.w3.org/2000/svg"
   xmlns="http://www.w3.org/2000/svg"
   xmlns:sodipodi="http://sodipodi.sourceforge.net/DTD/sodipodi-0.dtd"
   xmlns:inkscape="http://www.inkscape.org/namespaces/inkscape"
   width="400"
   height="400"
   id="svg2"
   version="1.1"
   inkscape:version="0.48.4 r9939"
   sodipodi:docname="line_segments_intersect2.svg">
  <sodipodi:namedview
     id="base"
     pagecolor="#ffffff"
     bordercolor="#666666"
     borderopacity="1.0"
     inkscape:pageopacity="0.0"
     inkscape:pageshadow="2"
     inkscape:zoom="0.98994949"
     inkscape:cx="557.31677"
     inkscape:cy="177.62312"
     inkscape:document-units="px"
     inkscape:current-layer="layer1"
     showgrid="false"
     inkscape:snap-object-midpoints="true"
     inkscape:object-nodes="true"
     inkscape:object-paths="true"
     inkscape:snap-intersection-paths="true"
     inkscape:window-width="1918"
     inkscape:window-height="1045"
     inkscape:window-x="0"
     inkscape:window-y="34"
     inkscape:window-maximized="0"
     inkscape:snap-global="true"
     fit-margin-top="0"
     fit-margin-left="0"
     fit-margin-right="0"
     fit-margin-bottom="0"
     inkscape:snap-center="true">
    <inkscape:grid
       type="xygrid"
       id="grid2985"
       empspacing="5"
       visible="true"
       enabled="true"
       snapvisiblegridlinesonly="true"
       originx="-140px"
       originy="-79.98718px" />
  </sodipodi:namedview>
  <defs
     id="defs4">
    <marker
       style="overflow:visible"
       id="Arrow1Mend"
       refX="0"
       refY="0"
       orient="auto"
       inkscape:stockid="Arrow1Mend">
      <path
         transform="matrix(-0.4,0,0,-0.4,-4,0)"
         style="fill-rule:evenodd;stroke:#000000;stroke-width:1pt"
         d="M 0,0 5,-5 -12.5,0 5,5 0,0 z"
         id="path3870"
         inkscape:connector-curvature="0" />
    </marker>
    <marker
       inkscape:stockid="Arrow1Send"
       orient="auto"
       refY="0"
       refX="0"
       id="Arrow1Send"
       style="overflow:visible">
      <path
         id="path3876"
         d="M 0,0 5,-5 -12.5,0 5,5 0,0 z"
         style="fill-rule:evenodd;stroke:#000000;stroke-width:1pt"
         transform="matrix(-0.2,0,0,-0.2,-1.2,0)"
         inkscape:connector-curvature="0" />
    </marker>
    <marker
       inkscape:stockid="Arrow1SendB"
       orient="auto"
       refY="0"
       refX="0"
       id="Arrow1SendB"
       style="overflow:visible">
      <path
         id="path4306"
         d="M 0,0 5,-5 -12.5,0 5,5 0,0 z"
         style="fill:#fe0000;fill-rule:evenodd;stroke:#fe0000;stroke-width:1pt"
         transform="matrix(-0.2,0,0,-0.2,-1.2,0)"
         inkscape:connector-curvature="0" />
    </marker>
    <marker
       style="overflow:visible"
       id="Arrow1Mendg"
       refX="0"
       refY="0"
       orient="auto"
       inkscape:stockid="Arrow1Mendg">
      <path
         transform="matrix(-0.4,0,0,-0.4,-4,0)"
         style="fill:#fe0000;fill-rule:evenodd;stroke:#fe0000;stroke-width:1pt"
         d="M 0,0 5,-5 -12.5,0 5,5 0,0 z"
         id="path4557"
         inkscape:connector-curvature="0" />
    </marker>
    <marker
       style="overflow:visible"
       id="Arrow1Mendgt"
       refX="0"
       refY="0"
       orient="auto"
       inkscape:stockid="Arrow1Mendgt">
      <path
         transform="matrix(-0.4,0,0,-0.4,-4,0)"
         style="fill:#008000;fill-rule:evenodd;stroke:#008000;stroke-width:1pt"
         d="M 0,0 5,-5 -12.5,0 5,5 0,0 z"
         id="path4649"
         inkscape:connector-curvature="0" />
    </marker>
    <marker
       style="overflow:visible"
       id="Arrow1Mendg-3"
       refX="0"
       refY="0"
       orient="auto"
       inkscape:stockid="Arrow1Mendg">
      <path
         transform="matrix(-0.4,0,0,-0.4,-4,0)"
         style="fill:#fe0000;fill-rule:evenodd;stroke:#fe0000;stroke-width:1pt"
         d="M 0,0 5,-5 -12.5,0 5,5 0,0 z"
         id="path4557-5"
         inkscape:connector-curvature="0" />
    </marker>
    <marker
       style="overflow:visible"
       id="marker7056"
       refX="0"
       refY="0"
       orient="auto"
       inkscape:stockid="Arrow1Mendg">
      <path
         transform="matrix(-0.4,0,0,-0.4,-4,0)"
         style="fill:#fe0000;fill-rule:evenodd;stroke:#fe0000;stroke-width:1pt"
         d="M 0,0 5,-5 -12.5,0 5,5 0,0 z"
         id="path7058"
         inkscape:connector-curvature="0" />
    </marker>
    <marker
       style="overflow:visible"
       id="Arrow1MendO"
       refX="0"
       refY="0"
       orient="auto"
       inkscape:stockid="Arrow1MendO">
      <path
         transform="matrix(-0.4,0,0,-0.4,-4,0)"
         style="fill:#ff0000;fill-rule:evenodd;stroke:#ff0000;stroke-width:1pt"
         d="M 0,0 5,-5 -12.5,0 5,5 0,0 z"
         id="path5782"
         inkscape:connector-curvature="0" />
    </marker>
    <marker
       style="overflow:visible"
       id="Arrow1MendA"
       refX="0"
       refY="0"
       orient="auto"
       inkscape:stockid="Arrow1MendA">
      <path
         transform="matrix(-0.4,0,0,-0.4,-4,0)"
         style="fill:#ff0000;fill-rule:evenodd;stroke:#ff0000;stroke-width:1pt"
         d="M 0,0 5,-5 -12.5,0 5,5 0,0 z"
         id="path5785"
         inkscape:connector-curvature="0" />
    </marker>
    <marker
       style="overflow:visible"
       id="Arrow1MendK"
       refX="0"
       refY="0"
       orient="auto"
       inkscape:stockid="Arrow1MendK">
      <path
         transform="matrix(-0.4,0,0,-0.4,-4,0)"
         style="fill:#008080;fill-rule:evenodd;stroke:#008080;stroke-width:1pt"
         d="M 0,0 5,-5 -12.5,0 5,5 0,0 z"
         id="path6118"
         inkscape:connector-curvature="0" />
    </marker>
    <marker
       style="overflow:visible"
       id="Arrow1MendK7"
       refX="0"
       refY="0"
       orient="auto"
       inkscape:stockid="Arrow1MendK7">
      <path
         transform="matrix(-0.4,0,0,-0.4,-4,0)"
         style="fill:#0000ff;fill-rule:evenodd;stroke:#0000ff;stroke-width:1pt"
         d="M 0,0 5,-5 -12.5,0 5,5 0,0 z"
         id="path6257"
         inkscape:connector-curvature="0" />
    </marker>
  </defs>
  <metadata
     id="metadata7">
    <rdf:RDF>
      <cc:Work
         rdf:about="">
        <dc:format>image/svg+xml</dc:format>
        <dc:type
           rdf:resource="http://purl.org/dc/dcmitype/StillImage" />
        <dc:title></dc:title>
      </cc:Work>
    </rdf:RDF>
  </metadata>
  <g
     inkscape:label="Layer 1"
     inkscape:groupmode="layer"
     id="layer1"
     transform="translate(-140,-572.375)">
    <g
       id="g3812"
       transform="translate(200,3e-6)">
      <path
         inkscape:connector-curvature="0"
         id="path2987"
         d="m 80,972.36218 0,-400"
         style="fill:none;stroke:#009bd5;stroke-width:1px;stroke-linecap:butt;stroke-linejoin:miter;stroke-opacity:1" />
      <path
         style="fill:none;stroke:#009bd5;stroke-width:1px;stroke-linecap:butt;stroke-linejoin:miter;stroke-opacity:1"
         d="m 140,972.36218 0,-400"
         id="path3757"
         inkscape:connector-curvature="0" />
      <path
         inkscape:connector-curvature="0"
         id="path3759"
         d="m 340,772.36218 -400,0"
         style="fill:none;stroke:#009bd5;stroke-width:1px;stroke-linecap:butt;stroke-linejoin:miter;stroke-opacity:1" />
      <path
         style="fill:none;stroke:#009bd5;stroke-width:1px;stroke-linecap:butt;stroke-linejoin:miter;stroke-opacity:1"
         d="m 340,712.36218 -400,0"
         id="path3761"
         inkscape:connector-curvature="0" />
      <path
         style="fill:none;stroke:#009bd5;stroke-width:1px;stroke-linecap:butt;stroke-linejoin:miter;stroke-opacity:1"
         d="m 340,652.36218 -400,0"
         id="path3763"
         inkscape:connector-curvature="0" />
      <path
         inkscape:connector-curvature="0"
         id="path3765"
         d="m 340,592.36218 -400,0"
         style="fill:none;stroke:#009bd5;stroke-width:1px;stroke-linecap:butt;stroke-linejoin:miter;stroke-opacity:1" />
      <path
         inkscape:connector-curvature="0"
         id="path3767"
         d="m 340,892.36218 -400,0"
         style="fill:none;stroke:#009bd5;stroke-width:1px;stroke-linecap:butt;stroke-linejoin:miter;stroke-opacity:1" />
      <path
         style="fill:none;stroke:#009bd5;stroke-width:1px;stroke-linecap:butt;stroke-linejoin:miter;stroke-opacity:1"
         d="m 340,832.36218 -400,0"
         id="path3769"
         inkscape:connector-curvature="0" />
      <path
         style="fill:none;stroke:#009bd5;stroke-width:1px;stroke-linecap:butt;stroke-linejoin:miter;stroke-opacity:1"
         d="m 340,952.36218 -400,0"
         id="path3771"
         inkscape:connector-curvature="0" />
      <path
         style="fill:none;stroke:#009bd5;stroke-width:1px;stroke-linecap:butt;stroke-linejoin:miter;stroke-opacity:1"
         d="m 200,972.36218 0,-400"
         id="path3773"
         inkscape:connector-curvature="0" />
      <path
         inkscape:connector-curvature="0"
         id="path3775"
         d="m 260,972.36218 0,-400"
         style="fill:none;stroke:#009bd5;stroke-width:1px;stroke-linecap:butt;stroke-linejoin:miter;stroke-opacity:1" />
      <path
         inkscape:connector-curvature="0"
         id="path3777"
         d="m -40,972.36218 0,-400"
         style="fill:none;stroke:#009bd5;stroke-width:1px;stroke-linecap:butt;stroke-linejoin:miter;stroke-opacity:1" />
      <path
         style="fill:none;stroke:#009bd5;stroke-width:1px;stroke-linecap:butt;stroke-linejoin:miter;stroke-opacity:1"
         d="m 20,972.36218 0,-400"
         id="path3779"
         inkscape:connector-curvature="0" />
      <path
         inkscape:connector-curvature="0"
         id="path3781"
         d="m 320,972.36218 0,-400"
         style="fill:none;stroke:#009bd5;stroke-width:1px;stroke-linecap:butt;stroke-linejoin:miter;stroke-opacity:1" />
    </g>
    <path
       transform="matrix(1.4444445,0,0,1.4444445,368.05556,540.63995)"
       d="m -99.285714,243.5 c 0,1.7752 -1.439086,3.21429 -3.214286,3.21429 -1.7752,0 -3.21429,-1.43909 -3.21429,-3.21429 0,-1.7752 1.43909,-3.21429 3.21429,-3.21429 1.7752,0 3.214286,1.43909 3.214286,3.21429 z"
       sodipodi:ry="3.2142856"
       sodipodi:rx="3.2142856"
       sodipodi:cy="243.5"
       sodipodi:cx="-102.5"
       id="path4490"
       style="fill:#ff0000;fill-opacity:1;stroke:none"
       sodipodi:type="arc" />
    <path
       sodipodi:type="arc"
       style="fill:#ff0000;fill-opacity:1;stroke:none"
       id="path4494"
       sodipodi:cx="-102.5"
       sodipodi:cy="243.5"
       sodipodi:rx="3.2142856"
       sodipodi:ry="3.2142856"
       d="m -99.285714,243.5 c 0,1.7752 -1.439086,3.21429 -3.214286,3.21429 -1.7752,0 -3.21429,-1.43909 -3.21429,-3.21429 0,-1.7752 1.43909,-3.21429 3.21429,-3.21429 1.7752,0 3.214286,1.43909 3.214286,3.21429 z"
       transform="matrix(1.4444445,0,0,1.4444445,608.05556,360.63995)" />
    <path
       transform="matrix(1.4444445,0,0,1.4444445,428.05556,240.63995)"
       d="m -99.285714,243.5 c 0,1.7752 -1.439086,3.21429 -3.214286,3.21429 -1.7752,0 -3.21429,-1.43909 -3.21429,-3.21429 0,-1.7752 1.43909,-3.21429 3.21429,-3.21429 1.7752,0 3.214286,1.43909 3.214286,3.21429 z"
       sodipodi:ry="3.2142856"
       sodipodi:rx="3.2142856"
       sodipodi:cy="243.5"
       sodipodi:cx="-102.5"
       id="path4496"
       style="fill:#008000;fill-opacity:1;stroke:none"
       sodipodi:type="arc" />
    <path
       sodipodi:type="arc"
       style="fill:#008000;fill-opacity:1;stroke:none"
       id="path4498"
       sodipodi:cx="-102.5"
       sodipodi:cy="243.5"
       sodipodi:rx="3.2142856"
       sodipodi:ry="3.2142856"
       d="m -99.285714,243.5 c 0,1.7752 -1.439086,3.21429 -3.214286,3.21429 -1.7752,0 -3.21429,-1.43909 -3.21429,-3.21429 0,-1.7752 1.43909,-3.21429 3.21429,-3.21429 1.7752,0 3.214286,1.43909 3.214286,3.21429 z"
       transform="matrix(1.4444445,0,0,1.4444445,488.05556,600.63995)" />
    <path
       transform="translate(139.5,571.86218)"
       sodipodi:nodetypes="cc"
       inkscape:connector-curvature="0"
       id="path4500"
       d="M 140.5,20.500003 200.5,380.5"
       style="fill:none;stroke:#008000;stroke-width:1.20000005;stroke-linecap:butt;stroke-linejoin:miter;stroke-miterlimit:4;stroke-opacity:1;stroke-dasharray:none" />
    <path
       sodipodi:nodetypes="cc"
       style="fill:none;stroke:#ff0000;stroke-width:1.20000005;stroke-linecap:butt;stroke-linejoin:miter;stroke-miterlimit:4;stroke-opacity:1;stroke-dasharray:none;marker-end:none"
       d="m 80.5,320.5 240,-180"
       id="path5312"
       inkscape:connector-curvature="0"
       transform="translate(139.5,571.86218)" />
    <g
       transform="translate(640,440)"
       id="g5314">
      <path
         style="fill:none;stroke:#009bd5;stroke-width:1px;stroke-linecap:butt;stroke-linejoin:miter;stroke-opacity:1"
         d="m 80,972.36218 0,-400"
         id="path5316"
         inkscape:connector-curvature="0" />
      <path
         inkscape:connector-curvature="0"
         id="path5318"
         d="m 140,972.36218 0,-400"
         style="fill:none;stroke:#009bd5;stroke-width:1px;stroke-linecap:butt;stroke-linejoin:miter;stroke-opacity:1" />
      <path
         style="fill:none;stroke:#009bd5;stroke-width:1px;stroke-linecap:butt;stroke-linejoin:miter;stroke-opacity:1"
         d="m 340,772.36218 -400,0"
         id="path5320"
         inkscape:connector-curvature="0" />
      <path
         inkscape:connector-curvature="0"
         id="path5322"
         d="m 340,712.36218 -400,0"
         style="fill:none;stroke:#009bd5;stroke-width:1px;stroke-linecap:butt;stroke-linejoin:miter;stroke-opacity:1" />
      <path
         inkscape:connector-curvature="0"
         id="path5324"
         d="m 340,652.36218 -400,0"
         style="fill:none;stroke:#009bd5;stroke-width:1px;stroke-linecap:butt;stroke-linejoin:miter;stroke-opacity:1" />
      <path
         style="fill:none;stroke:#009bd5;stroke-width:1px;stroke-linecap:butt;stroke-linejoin:miter;stroke-opacity:1"
         d="m 340,592.36218 -400,0"
         id="path5326"
         inkscape:connector-curvature="0" />
      <path
         style="fill:none;stroke:#009bd5;stroke-width:1px;stroke-linecap:butt;stroke-linejoin:miter;stroke-opacity:1"
         d="m 340,892.36218 -400,0"
         id="path5328"
         inkscape:connector-curvature="0" />
      <path
         inkscape:connector-curvature="0"
         id="path5330"
         d="m 340,832.36218 -400,0"
         style="fill:none;stroke:#009bd5;stroke-width:1px;stroke-linecap:butt;stroke-linejoin:miter;stroke-opacity:1" />
      <path
         inkscape:connector-curvature="0"
         id="path5332"
         d="m 340,952.36218 -400,0"
         style="fill:none;stroke:#009bd5;stroke-width:1px;stroke-linecap:butt;stroke-linejoin:miter;stroke-opacity:1" />
      <path
         inkscape:connector-curvature="0"
         id="path5334"
         d="m 200,972.36218 0,-400"
         style="fill:none;stroke:#009bd5;stroke-width:1px;stroke-linecap:butt;stroke-linejoin:miter;stroke-opacity:1" />
      <path
         style="fill:none;stroke:#009bd5;stroke-width:1px;stroke-linecap:butt;stroke-linejoin:miter;stroke-opacity:1"
         d="m 260,972.36218 0,-400"
         id="path5336"
         inkscape:connector-curvature="0" />
      <path
         style="fill:none;stroke:#009bd5;stroke-width:1px;stroke-linecap:butt;stroke-linejoin:miter;stroke-opacity:1"
         d="m -40,972.36218 0,-400"
         id="path5338"
         inkscape:connector-curvature="0" />
      <path
         inkscape:connector-curvature="0"
         id="path5340"
         d="m 20,972.36218 0,-400"
         style="fill:none;stroke:#009bd5;stroke-width:1px;stroke-linecap:butt;stroke-linejoin:miter;stroke-opacity:1" />
      <path
         style="fill:none;stroke:#009bd5;stroke-width:1px;stroke-linecap:butt;stroke-linejoin:miter;stroke-opacity:1"
         d="m 320,972.36218 0,-400"
         id="path5342"
         inkscape:connector-curvature="0" />
    </g>
    <path
       sodipodi:type="arc"
       style="fill:#ff0000;fill-opacity:1;stroke:none"
       id="path5344"
       sodipodi:cx="-102.5"
       sodipodi:cy="243.5"
       sodipodi:rx="3.2142856"
       sodipodi:ry="3.2142856"
       d="m -99.285714,243.5 c 0,1.7752 -1.439086,3.21429 -3.214286,3.21429 -1.7752,0 -3.21429,-1.43909 -3.21429,-3.21429 0,-1.7752 1.43909,-3.21429 3.21429,-3.21429 1.7752,0 3.214286,1.43909 3.214286,3.21429 z"
       transform="matrix(1.4444445,0,0,1.4444445,748.05557,740.63995)" />
    <path
       transform="matrix(1.4444445,0,0,1.4444445,1108.0556,860.63994)"
       d="m -99.285714,243.5 c 0,1.7752 -1.439086,3.21429 -3.214286,3.21429 -1.7752,0 -3.21429,-1.43909 -3.21429,-3.21429 0,-1.7752 1.43909,-3.21429 3.21429,-3.21429 1.7752,0 3.214286,1.43909 3.214286,3.21429 z"
       sodipodi:ry="3.2142856"
       sodipodi:rx="3.2142856"
       sodipodi:cy="243.5"
       sodipodi:cx="-102.5"
       id="path5346"
       style="fill:#ff0000;fill-opacity:1;stroke:none"
       sodipodi:type="arc" />
    <path
       sodipodi:type="arc"
       style="fill:#008000;fill-opacity:1;stroke:none"
       id="path5348"
       sodipodi:cx="-102.5"
       sodipodi:cy="243.5"
       sodipodi:rx="3.2142856"
       sodipodi:ry="3.2142856"
       d="m -99.285714,243.5 c 0,1.7752 -1.439086,3.21429 -3.214286,3.21429 -1.7752,0 -3.21429,-1.43909 -3.21429,-3.21429 0,-1.7752 1.43909,-3.21429 3.21429,-3.21429 1.7752,0 3.214286,1.43909 3.214286,3.21429 z"
       transform="matrix(1.4444445,0,0,1.4444445,928.05556,860.63995)" />
    <path
       transform="matrix(1.4444445,0,0,1.4444445,988.05556,1040.6399)"
       d="m -99.285714,243.5 c 0,1.7752 -1.439086,3.21429 -3.214286,3.21429 -1.7752,0 -3.21429,-1.43909 -3.21429,-3.21429 0,-1.7752 1.43909,-3.21429 3.21429,-3.21429 1.7752,0 3.214286,1.43909 3.214286,3.21429 z"
       sodipodi:ry="3.2142856"
       sodipodi:rx="3.2142856"
       sodipodi:cy="243.5"
       sodipodi:cx="-102.5"
       id="path5350"
       style="fill:#008000;fill-opacity:1;stroke:none"
       sodipodi:type="arc" />
    <path
       style="fill:none;stroke:#008000;stroke-width:1.20000005;stroke-linecap:butt;stroke-linejoin:miter;stroke-miterlimit:4;stroke-opacity:1;stroke-dasharray:none"
       d="m 780,1212.3622 60,180"
       id="path5352"
       inkscape:connector-curvature="0"
       sodipodi:nodetypes="cc" />
    <path
       inkscape:connector-curvature="0"
       id="path5354"
       d="m 600,1092.3622 360,120"
       style="fill:none;stroke:#ff0000;stroke-width:2.70000005;stroke-linecap:butt;stroke-linejoin:miter;stroke-miterlimit:4;stroke-opacity:1;stroke-dasharray:none;marker-end:url(#Arrow1MendA)"
       sodipodi:nodetypes="cc" />
    <path
       sodipodi:nodetypes="cc"
       style="fill:none;stroke:#0000ff;stroke-width:1.70000005;stroke-linecap:butt;stroke-linejoin:miter;stroke-miterlimit:4;stroke-opacity:1;stroke-dasharray:none;marker-end:url(#Arrow1MendK7)"
       d="M 600.00001,1092.3622 780,1212.3622"
       id="path6375"
       inkscape:connector-curvature="0" />
    <path
       inkscape:connector-curvature="0"
       id="path6377"
       d="M 600.00001,1092.3622 840,1392.3622"
       style="fill:none;stroke:#0000ff;stroke-width:1.70000005;stroke-linecap:butt;stroke-linejoin:miter;stroke-miterlimit:4;stroke-opacity:1;stroke-dasharray:none;marker-end:url(#Arrow1MendK7)"
       sodipodi:nodetypes="cc" />
  </g>
</svg>
